SplineFontDB: 3.0
FontName: cmex10
FullName: cmex10
FamilyName: cmex10
Weight: Book
Copyright: Copyright (C) 1994, Basil K. Malyshev. All Rights Reserved.012BaKoMa Fonts Collection, Level-B.
Version: 1.1/12-Nov-94
ItalicAngle: 0
UnderlinePosition: -123
UnderlineWidth: 20
Ascent: 1638
Descent: 410
sfntRevision: 0x00010000
LayerCount: 2
Layer: 0 1 "Back"  1
Layer: 1 1 "Fore"  0
XUID: [1021 99 1815243471 13213937]
FSType: 0
OS2Version: 0
OS2_WeightWidthSlopeOnly: 0
OS2_UseTypoMetrics: 1
CreationTime: -2082844800
ModificationTime: 1421633876
PfmFamily: 17
TTFWeight: 400
TTFWidth: 5
LineGap: 0
VLineGap: 0
Panose: 2 11 5 0 0 0 0 0 0 0
OS2TypoAscent: -57
OS2TypoAOffset: 1
OS2TypoDescent: -5652
OS2TypoDOffset: 1
OS2TypoLinegap: 0
OS2WinAscent: 0
OS2WinAOffset: 1
OS2WinDescent: 0
OS2WinDOffset: 1
HheadAscent: 0
HheadAOffset: 1
HheadDescent: -20
HheadDOffset: 1
OS2SubXSize: 410
OS2SubYSize: 369
OS2SubXOff: 0
OS2SubYOff: 0
OS2SupXSize: 410
OS2SupYSize: 369
OS2SupXOff: 0
OS2SupYOff: 0
OS2StrikeYSize: 102
OS2StrikeYPos: 530
OS2UnicodeRanges: 00000000.00000000.00000000.00000000
MarkAttachClasses: 1
DEI: 91125
TtTable: prep
NPUSHB
 34
 2
 32
 3
 30
 2
 28
 3
 24
 1
 23
 2
 22
 11
 19
 7
 30
 66
 10
 13
 4
 71
 4
 66
 2
 63
 29
 62
 4
 66
 66
 34
 13
 48
 0
SCANTYPE
PUSHW_1
 828
SCANCTRL
SCVTCI
CALL
CALL
EndTTInstrs
TtTable: fpgm
NPUSHB
 22
 21
 20
 19
 18
 17
 16
 15
 14
 13
 12
 11
 10
 9
 8
 7
 6
 5
 4
 3
 2
 1
 0
FDEF
PUSHB_3
 0
 128
 0
RS
DUP
ROLL
DIV
ROLL
SWAP
WS
FLOOR
ODD
ENDF
FDEF
PUSHB_3
 42
 0
 0
RS
EQ
JROT
PUSHB_1
 0
CALL
IF
SLOOP
IP
EIF
PUSHB_1
 0
CALL
IF
SLOOP
ALIGNRP
EIF
PUSHB_1
 0
CALL
IF
PUSHB_1
 10
LOOPCALL
EIF
PUSHB_1
 1
RS
SRP0
PUSHB_1
 0
CALL
IF
SLOOP
ALIGNRP
EIF
PUSHB_1
 0
CALL
IF
PUSHB_1
 10
LOOPCALL
EIF
ENDF
FDEF
CALL
ENDF
FDEF
CALL
PUSHB_1
 2
LOOPCALL
ENDF
FDEF
PUSHB_1
 2
LOOPCALL
ENDF
FDEF
PUSHB_1
 1
DIV
PUSHB_1
 0
SWAP
WS
PUSHB_2
 1
 3
CINDEX
WS
DUP
GC[cur]
DUP
ROUND[Grey]
SUB
ABS
PUSHB_1
 3
CINDEX
GC[cur]
DUP
ROUND[Grey]
DUP
PUSHB_1
 4
RS
SWAP
SUB
DUP

StartChar: .notdef
Encoding: 65536 -1 0
Width: 1536
Flags: W
LayerCount: 2
Fore
SplineSet
256 0 m 1,0,-1
 256 1280 l 1,1,-1
 1280 1280 l 1,2,-1
 1280 0 l 1,3,-1
 256 0 l 1,0,-1
1247 33 m 1,4,-1
 1247 1247 l 1,5,-1
 289 1247 l 1,6,-1
 289 33 l 1,7,-1
 1247 33 l 1,4,-1
EndSplineSet
EndChar

StartChar: producttext
Encoding: 81 81 3
Width: 1933
Flags: W
LayerCount: 2
Fore
SplineSet
115 -2048 m 1,0,-1
 115 -1966 l 1,1,2
 326 -1966 326 -1966 326 -1829 c 2,3,-1
 326 -219 l 2,4,5
 326 -82 326 -82 115 -82 c 1,6,-1
 115 0 l 1,7,-1
 1817 0 l 1,8,-1
 1817 -82 l 1,9,10
 1606 -82 1606 -82 1606 -219 c 2,11,-1
 1606 -1829 l 2,12,13
 1606 -1966 1606 -1966 1817 -1966 c 1,14,-1
 1817 -2048 l 1,15,-1
 1188 -2048 l 1,16,-1
 1188 -1966 l 1,17,18
 1399 -1966 1399 -1966 1399 -1829 c 2,19,-1
 1399 -82 l 1,20,-1
 532 -82 l 1,21,-1
 532 -1829 l 2,22,23
 532 -1966 532 -1966 743 -1966 c 1,24,-1
 743 -2048 l 1,25,-1
 115 -2048 l 1,0,-1
EndSplineSet
EndChar

StartChar: logicalanddisplay
Encoding: 94 94 4
Width: 2275
Flags: W
LayerCount: 2
Fore
SplineSet
115 -2783 m 1,0,-1
 115 -2773 l 1,1,2
 119 -2753 119 -2753 123 -2742 c 2,3,-1
 1055 -53 l 1,4,5
 1080 -6 1080 -6 1133 0 c 1,6,-1
 1143 0 l 1,7,8
 1192 -6 1192 -6 1219 -53 c 1,9,-1
 2154 -2753 l 1,10,11
 2159 -2763 2159 -2763 2159 -2773 c 2,12,-1
 2159 -2783 l 1,13,14
 2148 -2858 2148 -2858 2075 -2867 c 1,15,-1
 2064 -2867 l 1,16,17
 2013 -2861 2013 -2861 1989 -2814 c 1,18,-1
 1137 -360 l 1,19,-1
 287 -2814 l 1,20,21
 258 -2861 258 -2861 209 -2867 c 1,22,-1
 199 -2867 l 1,23,24
 125 -2857 125 -2857 115 -2783 c 1,0,-1
EndSplineSet
EndChar

StartChar: floorrightBig
Encoding: 107 107 5
Width: 1079
Flags: W
LayerCount: 2
Fore
SplineSet
37 -3602 m 1,0,-1
 37 -3504 l 1,1,-1
 518 -3504 l 1,2,-1
 518 82 l 1,3,-1
 616 82 l 1,4,-1
 616 -3602 l 1,5,-1
 37 -3602 l 1,0,-1
EndSplineSet
EndChar

StartChar: arrowtp
Encoding: 120 120 6
Width: 1364
Flags: W
LayerCount: 2
Fore
SplineSet
639 -1229 m 1,0,-1
 639 -186 l 1,1,2
 550 -278 550 -278 446 -346 c 128,-1,3
 342 -414 342 -414 227 -453 c 1,4,-1
 227 -371 l 1,5,6
 368 -322 368 -322 487.5 -226 c 128,-1,7
 607 -130 607 -130 684 0 c 1,8,9
 760 -129 760 -129 878 -225 c 128,-1,10
 996 -321 996 -321 1139 -371 c 1,11,-1
 1139 -453 l 1,12,13
 1024 -414 1024 -414 922 -347.5 c 128,-1,14
 820 -281 820 -281 727 -186 c 1,15,-1
 727 -1229 l 1,16,-1
 639 -1229 l 1,0,-1
EndSplineSet
EndChar

StartChar: arrowvertex
Encoding: 63 63 7
Width: 1364
Flags: W
LayerCount: 2
Fore
SplineSet
639 -1231 m 1,0,-1
 639 2 l 1,1,-1
 727 2 l 1,2,-1
 727 -1231 l 1,3,-1
 639 -1231 l 1,0,-1
EndSplineSet
EndChar

StartChar: unionsqtext
Encoding: 70 70 8
Width: 1706
Flags: W
LayerCount: 2
Fore
SplineSet
115 -1978 m 1,0,-1
 115 -1020 l 1,1,-1
 115 -70 l 1,2,3
 124 -9 124 -9 184 0 c 1,4,-1
 195 0 l 1,5,6
 255 -9 255 -9 264 -70 c 1,7,-1
 264 -1030 l 1,8,-1
 264 -1898 l 1,9,-1
 1440 -1898 l 1,10,-1
 1440 -1020 l 1,11,-1
 1440 -70 l 1,12,13
 1449 -9 1449 -9 1509 0 c 1,14,-1
 1520 0 l 1,15,16
 1580 -9 1580 -9 1589 -70 c 1,17,-1
 1589 -1030 l 1,18,-1
 1589 -1978 l 1,19,20
 1580 -2039 1580 -2039 1520 -2048 c 1,21,-1
 184 -2048 l 1,22,23
 124 -2039 124 -2039 115 -1978 c 1,0,-1
EndSplineSet
EndChar

StartChar: uniontext
Encoding: 83 83 9
Width: 1706
Flags: W
LayerCount: 2
Fore
SplineSet
115 -1346 m 2,0,-1
 115 -70 l 1,1,2
 124 -9 124 -9 184 0 c 1,3,-1
 195 0 l 1,4,5
 255 -9 255 -9 264 -70 c 1,6,-1
 264 -1335 l 2,7,8
 264 -1454 264 -1454 310 -1557 c 128,-1,9
 356 -1660 356 -1660 440 -1737.5 c 128,-1,10
 524 -1815 524 -1815 629.5 -1856.5 c 128,-1,11
 735 -1898 735 -1898 852 -1898 c 256,12,13
 969 -1898 969 -1898 1075.5 -1856.5 c 128,-1,14
 1182 -1815 1182 -1815 1264.5 -1737.5 c 128,-1,15
 1347 -1660 1347 -1660 1393.5 -1556 c 128,-1,16
 1440 -1452 1440 -1452 1440 -1335 c 2,17,-1
 1440 -70 l 1,18,19
 1449 -9 1449 -9 1509 0 c 1,20,-1
 1520 0 l 1,21,22
 1580 -9 1580 -9 1589 -70 c 1,23,-1
 1589 -1346 l 2,24,25
 1589 -1493 1589 -1493 1530 -1621 c 128,-1,26
 1471 -1749 1471 -1749 1368.5 -1845 c 128,-1,27
 1266 -1941 1266 -1941 1133.5 -1994.5 c 128,-1,28
 1001 -2048 1001 -2048 858 -2048 c 2,29,-1
 848 -2048 l 2,30,31
 658 -2048 658 -2048 487.5 -1954.5 c 128,-1,32
 317 -1861 317 -1861 216 -1700 c 128,-1,33
 115 -1539 115 -1539 115 -1346 c 2,0,-1
EndSplineSet
EndChar

StartChar: coproducttext
Encoding: 96 96 10
Width: 1933
Flags: W
LayerCount: 2
Fore
SplineSet
115 -2048 m 1,0,-1
 115 -1966 l 1,1,2
 326 -1966 326 -1966 326 -1829 c 2,3,-1
 326 -219 l 2,4,5
 326 -82 326 -82 115 -82 c 1,6,-1
 115 0 l 1,7,-1
 743 0 l 1,8,-1
 743 -82 l 1,9,10
 532 -82 532 -82 532 -219 c 2,11,-1
 532 -1966 l 1,12,-1
 1399 -1966 l 1,13,-1
 1399 -219 l 2,14,15
 1399 -82 1399 -82 1188 -82 c 1,16,-1
 1188 0 l 1,17,-1
 1817 0 l 1,18,-1
 1817 -82 l 1,19,20
 1606 -82 1606 -82 1606 -219 c 2,21,-1
 1606 -1829 l 2,22,23
 1606 -1966 1606 -1966 1817 -1966 c 1,24,-1
 1817 -2048 l 1,25,-1
 115 -2048 l 1,0,-1
EndSplineSet
EndChar

StartChar: ceilingrightBig
Encoding: 109 109 11
Width: 1079
Flags: W
LayerCount: 2
Fore
SplineSet
518 -3602 m 1,0,-1
 518 -16 l 1,1,-1
 37 -16 l 1,2,-1
 37 82 l 1,3,-1
 616 82 l 1,4,-1
 616 -3602 l 1,5,-1
 518 -3602 l 1,0,-1
EndSplineSet
EndChar

StartChar: bracehtipdownleft
Encoding: 122 122 12
Width: 922
Flags: W
LayerCount: 2
Fore
SplineSet
-49 -422 m 2,0,-1
 -49 -358 l 2,1,2
 -49 -352 -49 -352 -45 -348 c 1,3,4
 50 -171 50 -171 199.5 -37 c 128,-1,5
 349 97 349 97 536 171.5 c 128,-1,6
 723 246 723 246 920 246 c 0,7,8
 930 246 930 246 936 241.5 c 128,-1,9
 942 237 942 237 942 229 c 2,10,-1
 942 18 l 2,11,12
 942 11 942 11 936.5 5.5 c 128,-1,13
 931 0 931 0 924 0 c 0,14,15
 796 0 796 0 667 -24.5 c 128,-1,16
 538 -49 538 -49 421.5 -101 c 128,-1,17
 305 -153 305 -153 207 -237 c 128,-1,18
 109 -321 109 -321 45 -432 c 1,19,20
 39 -438 39 -438 33 -438 c 2,21,-1
 -33 -438 l 2,22,23
 -39 -438 -39 -438 -44 -433 c 128,-1,24
 -49 -428 -49 -428 -49 -422 c 2,0,-1
EndSplineSet
EndChar

StartChar: contintegraltext
Encoding: 72 72 13
Width: 967
Flags: W
LayerCount: 2
Fore
SplineSet
215 -2177 m 1,0,1
 266 -2222 266 -2222 342 -2222 c 0,2,3
 470 -2222 470 -2222 520 -2032 c 1,4,5
 537 -1962 537 -1962 553 -1802 c 1,6,7
 562 -1688 562 -1688 566 -1630.5 c 128,-1,8
 570 -1573 570 -1573 575 -1499 c 1,9,10
 458 -1459 458 -1459 385.5 -1360 c 128,-1,11
 313 -1261 313 -1261 313 -1139 c 0,12,13
 313 -994 313 -994 410 -885 c 128,-1,14
 507 -776 507 -776 649 -758 c 1,15,16
 660 -664 660 -664 677 -531.5 c 128,-1,17
 694 -399 694 -399 731 -278 c 128,-1,18
 768 -157 768 -157 838.5 -78.5 c 128,-1,19
 909 0 909 0 1020 0 c 0,20,21
 1074 0 1074 0 1127.5 -23 c 128,-1,22
 1181 -46 1181 -46 1214 -89 c 128,-1,23
 1247 -132 1247 -132 1247 -188 c 0,24,25
 1247 -225 1247 -225 1221.5 -250.5 c 128,-1,26
 1196 -276 1196 -276 1159 -276 c 256,27,28
 1122 -276 1122 -276 1095.5 -250.5 c 128,-1,29
 1069 -225 1069 -225 1069 -188 c 0,30,31
 1069 -152 1069 -152 1091 -127.5 c 128,-1,32
 1113 -103 1113 -103 1147 -98 c 1,33,34
 1095 -53 1095 -53 1020 -53 c 0,35,36
 919 -53 919 -53 872 -219 c 1,37,38
 855 -291 855 -291 838 -473 c 1,39,40
 832 -550 832 -550 829 -586.5 c 128,-1,41
 826 -623 826 -623 822 -683 c 128,-1,42
 818 -743 818 -743 815 -776 c 1,43,44
 931 -814 931 -814 1004 -915.5 c 128,-1,45
 1077 -1017 1077 -1017 1077 -1139 c 0,46,47
 1077 -1278 1077 -1278 980.5 -1388 c 128,-1,48
 884 -1498 884 -1498 741 -1518 c 1,49,50
 732 -1589 732 -1589 711.5 -1740 c 128,-1,51
 691 -1891 691 -1891 653 -2005 c 128,-1,52
 615 -2119 615 -2119 538.5 -2197 c 128,-1,53
 462 -2275 462 -2275 342 -2275 c 0,54,55
 288 -2275 288 -2275 234.5 -2252 c 128,-1,56
 181 -2229 181 -2229 148 -2186.5 c 128,-1,57
 115 -2144 115 -2144 115 -2089 c 0,58,59
 115 -2051 115 -2051 141 -2025 c 128,-1,60
 167 -1999 167 -1999 205 -1999 c 0,61,62
 229 -1999 229 -1999 249.5 -2010.5 c 128,-1,63
 270 -2022 270 -2022 281.5 -2042 c 128,-1,64
 293 -2062 293 -2062 293 -2089 c 0,65,66
 293 -2110 293 -2110 283 -2130 c 128,-1,67
 273 -2150 273 -2150 256 -2162 c 128,-1,68
 239 -2174 239 -2174 215 -2177 c 1,0,1
752 -1432 m 1,69,70
 819 -1419 819 -1419 875 -1376.5 c 128,-1,71
 931 -1334 931 -1334 963 -1272 c 128,-1,72
 995 -1210 995 -1210 995 -1139 c 0,73,74
 995 -1049 995 -1049 943 -971.5 c 128,-1,75
 891 -894 891 -894 809 -860 c 1,76,77
 800 -984 800 -984 784 -1141 c 0,78,79
 775 -1233 775 -1233 767.5 -1299 c 128,-1,80
 760 -1365 760 -1365 752 -1432 c 1,69,70
582 -1415 m 1,81,82
 590 -1305 590 -1305 606 -1137 c 0,83,84
 616 -1040 616 -1040 626 -956 c 128,-1,85
 636 -872 636 -872 639 -844 c 1,86,87
 536 -863 536 -863 465.5 -947 c 128,-1,88
 395 -1031 395 -1031 395 -1139 c 0,89,90
 395 -1227 395 -1227 446.5 -1302.5 c 128,-1,91
 498 -1378 498 -1378 582 -1415 c 1,81,82
EndSplineSet
EndChar

StartChar: unionmultitext
Encoding: 85 85 14
Width: 1706
Flags: W
LayerCount: 2
Fore
SplineSet
115 -1346 m 2,0,-1
 115 -70 l 1,1,2
 124 -9 124 -9 184 0 c 1,3,-1
 195 0 l 1,4,5
 255 -9 255 -9 264 -70 c 1,6,-1
 264 -1335 l 2,7,8
 264 -1454 264 -1454 310 -1557 c 128,-1,9
 356 -1660 356 -1660 440 -1737.5 c 128,-1,10
 524 -1815 524 -1815 629.5 -1856.5 c 128,-1,11
 735 -1898 735 -1898 852 -1898 c 256,12,13
 969 -1898 969 -1898 1075.5 -1856.5 c 128,-1,14
 1182 -1815 1182 -1815 1264.5 -1737.5 c 128,-1,15
 1347 -1660 1347 -1660 1393.5 -1556 c 128,-1,16
 1440 -1452 1440 -1452 1440 -1335 c 2,17,-1
 1440 -70 l 1,18,19
 1449 -9 1449 -9 1509 0 c 1,20,-1
 1520 0 l 1,21,22
 1580 -9 1580 -9 1589 -70 c 1,23,-1
 1589 -1346 l 2,24,25
 1589 -1493 1589 -1493 1530 -1621 c 128,-1,26
 1471 -1749 1471 -1749 1368.5 -1845 c 128,-1,27
 1266 -1941 1266 -1941 1133.5 -1994.5 c 128,-1,28
 1001 -2048 1001 -2048 858 -2048 c 2,29,-1
 848 -2048 l 2,30,31
 658 -2048 658 -2048 487.5 -1954.5 c 128,-1,32
 317 -1861 317 -1861 216 -1700 c 128,-1,33
 115 -1539 115 -1539 115 -1346 c 2,0,-1
778 -1335 m 1,34,-1
 778 -1042 l 1,35,-1
 483 -1042 l 1,36,37
 423 -1033 423 -1033 414 -973 c 1,38,-1
 414 -963 l 1,39,40
 418 -934 418 -934 436.5 -915 c 128,-1,41
 455 -896 455 -896 483 -893 c 1,42,-1
 778 -893 l 1,43,-1
 778 -598 l 1,44,45
 784 -539 784 -539 848 -528 c 1,46,-1
 858 -528 l 1,47,48
 919 -540 919 -540 928 -598 c 1,49,-1
 928 -893 l 1,50,-1
 1221 -893 l 1,51,52
 1249 -896 1249 -896 1267 -914 c 128,-1,53
 1285 -932 1285 -932 1290 -963 c 1,54,-1
 1290 -973 l 1,55,56
 1281 -1033 1281 -1033 1221 -1042 c 1,57,-1
 928 -1042 l 1,58,-1
 928 -1335 l 1,59,60
 923 -1365 923 -1365 904.5 -1383.5 c 128,-1,61
 886 -1402 886 -1402 858 -1405 c 1,62,-1
 848 -1405 l 1,63,64
 785 -1398 785 -1398 778 -1335 c 1,34,-1
EndSplineSet
EndChar

StartChar: hatwide
Encoding: 98 98 15
Width: 1137
Flags: W
LayerCount: 2
Fore
SplineSet
14 1145 m 1,0,-1
 -14 1198 l 1,1,-1
 569 1524 l 1,2,-1
 1151 1198 l 1,3,-1
 1122 1145 l 1,4,-1
 569 1395 l 1,5,-1
 14 1145 l 1,0,-1
EndSplineSet
EndChar

StartChar: bracerightBig
Encoding: 111 111 16
Width: 1364
Flags: W
LayerCount: 2
Fore
SplineSet
244 -3586 m 2,0,-1
 244 -3539 l 2,1,2
 244 -3527 244 -3527 258 -3523 c 1,3,4
 402 -3467 402 -3467 501 -3366 c 128,-1,5
 600 -3265 600 -3265 600 -3131 c 2,6,-1
 600 -2230 l 2,7,8
 600 -2120 600 -2120 657 -2028 c 128,-1,9
 714 -1936 714 -1936 803 -1871.5 c 128,-1,10
 892 -1807 892 -1807 1004 -1761 c 1,11,12
 895 -1716 895 -1716 804.5 -1650 c 128,-1,13
 714 -1584 714 -1584 657 -1493 c 128,-1,14
 600 -1402 600 -1402 600 -1290 c 2,15,-1
 600 -389 l 2,16,17
 600 -297 600 -297 551.5 -220.5 c 128,-1,18
 503 -144 503 -144 425 -89 c 128,-1,19
 347 -34 347 -34 258 2 c 1,20,21
 244 5 244 5 244 18 c 2,22,-1
 244 66 l 2,23,24
 244 82 244 82 262 82 c 2,25,-1
 309 82 l 1,26,27
 344 74 344 74 391.5 53 c 128,-1,28
 439 32 439 32 483.5 6 c 128,-1,29
 528 -20 528 -20 569.5 -50.5 c 128,-1,30
 611 -81 611 -81 639 -109 c 0,31,32
 696 -164 696 -164 730 -236 c 128,-1,33
 764 -308 764 -308 764 -385 c 2,34,-1
 764 -1286 l 2,35,36
 764 -1384 764 -1384 811.5 -1469.5 c 128,-1,37
 859 -1555 859 -1555 938 -1619 c 128,-1,38
 1017 -1683 1017 -1683 1108 -1720 c 0,39,40
 1120 -1724 1120 -1724 1120 -1737 c 2,41,-1
 1120 -1784 l 2,42,43
 1120 -1796 1120 -1796 1108 -1800 c 1,44,45
 1012 -1841 1012 -1841 935.5 -1903.5 c 128,-1,46
 859 -1966 859 -1966 811.5 -2051.5 c 128,-1,47
 764 -2137 764 -2137 764 -2234 c 2,48,-1
 764 -3135 l 2,49,50
 764 -3211 764 -3211 730 -3283 c 128,-1,51
 696 -3355 696 -3355 639 -3412 c 128,-1,52
 582 -3469 582 -3469 482 -3526.5 c 128,-1,53
 382 -3584 382 -3584 309 -3602 c 1,54,-1
 262 -3602 l 2,55,56
 244 -3602 244 -3602 244 -3586 c 2,0,-1
EndSplineSet
EndChar

StartChar: bracehtipupleft
Encoding: 124 124 17
Width: 922
Flags: W
LayerCount: 2
Fore
SplineSet
-45 594 m 1,0,1
 -49 598 -49 598 -49 604 c 2,2,-1
 -49 668 l 2,3,4
 -49 674 -49 674 -44 679 c 128,-1,5
 -39 684 -39 684 -33 684 c 2,6,-1
 33 684 l 2,7,8
 39 684 39 684 45 678 c 1,9,10
 110 567 110 567 206.5 484 c 128,-1,11
 303 401 303 401 420.5 348.5 c 128,-1,12
 538 296 538 296 666.5 271 c 128,-1,13
 795 246 795 246 924 246 c 0,14,15
 931 246 931 246 936.5 241.5 c 128,-1,16
 942 237 942 237 942 229 c 2,17,-1
 942 18 l 2,18,19
 942 0 942 0 920 0 c 0,20,21
 723 0 723 0 536 74.5 c 128,-1,22
 349 149 349 149 199.5 283 c 128,-1,23
 50 417 50 417 -45 594 c 1,0,1
EndSplineSet
EndChar

StartChar: circledottext
Encoding: 74 74 18
Width: 2275
Flags: W
LayerCount: 2
Fore
SplineSet
1133 -2048 m 2,0,1
 927 -2048 927 -2048 742 -1968 c 128,-1,2
 557 -1888 557 -1888 415.5 -1745.5 c 128,-1,3
 274 -1603 274 -1603 194.5 -1418.5 c 128,-1,4
 115 -1234 115 -1234 115 -1030 c 2,5,-1
 115 -1020 l 2,6,7
 115 -748 115 -748 252.5 -513 c 128,-1,8
 390 -278 390 -278 624.5 -139 c 128,-1,9
 859 0 859 0 1133 0 c 2,10,-1
 1143 0 l 2,11,12
 1415 0 1415 0 1650 -139 c 128,-1,13
 1885 -278 1885 -278 2022 -513 c 128,-1,14
 2159 -748 2159 -748 2159 -1020 c 2,15,-1
 2159 -1030 l 2,16,17
 2159 -1234 2159 -1234 2080.5 -1418.5 c 128,-1,18
 2002 -1603 2002 -1603 1860.5 -1745 c 128,-1,19
 1719 -1887 1719 -1887 1533.5 -1967.5 c 128,-1,20
 1348 -2048 1348 -2048 1143 -2048 c 2,21,-1
 1133 -2048 l 2,0,1
1137 -1898 m 0,22,23
 1313 -1898 1313 -1898 1473.5 -1829.5 c 128,-1,24
 1634 -1761 1634 -1761 1754.5 -1639.5 c 128,-1,25
 1875 -1518 1875 -1518 1942 -1360.5 c 128,-1,26
 2009 -1203 2009 -1203 2009 -1024 c 0,27,28
 2009 -844 2009 -844 1941 -685.5 c 128,-1,29
 1873 -527 1873 -527 1753.5 -407 c 128,-1,30
 1634 -287 1634 -287 1473.5 -218.5 c 128,-1,31
 1313 -150 1313 -150 1137 -150 c 0,32,33
 903 -150 903 -150 701 -268 c 128,-1,34
 499 -386 499 -386 381.5 -587.5 c 128,-1,35
 264 -789 264 -789 264 -1024 c 256,36,37
 264 -1259 264 -1259 381.5 -1460.5 c 128,-1,38
 499 -1662 499 -1662 701 -1780 c 128,-1,39
 903 -1898 903 -1898 1137 -1898 c 0,22,23
1137 -1169 m 0,40,41
 1078 -1169 1078 -1169 1034.5 -1125.5 c 128,-1,42
 991 -1082 991 -1082 991 -1024 c 0,43,44
 991 -965 991 -965 1034 -922 c 128,-1,45
 1077 -879 1077 -879 1137 -879 c 0,46,47
 1198 -879 1198 -879 1240 -921 c 128,-1,48
 1282 -963 1282 -963 1282 -1024 c 0,49,50
 1282 -1084 1282 -1084 1239.5 -1126.5 c 128,-1,51
 1197 -1169 1197 -1169 1137 -1169 c 0,40,41
EndSplineSet
EndChar

StartChar: logicalortext
Encoding: 87 87 19
Width: 1706
Flags: W
LayerCount: 2
Fore
SplineSet
782 -1999 m 2,0,-1
 119 -100 l 2,1,2
 115 -88 115 -88 115 -80 c 2,3,-1
 115 -70 l 1,4,5
 124 -9 124 -9 184 0 c 1,6,-1
 195 0 l 1,7,8
 243 -6 243 -6 260 -51 c 1,9,-1
 852 -1747 l 1,10,-1
 1444 -51 l 1,11,12
 1461 -6 1461 -6 1509 0 c 1,13,-1
 1520 0 l 1,14,15
 1580 -9 1580 -9 1589 -70 c 1,16,-1
 1589 -80 l 2,17,18
 1589 -88 1589 -88 1585 -100 c 2,19,-1
 924 -1999 l 1,20,21
 905 -2042 905 -2042 858 -2048 c 1,22,-1
 848 -2048 l 1,23,24
 798 -2042 798 -2042 782 -1999 c 2,0,-1
EndSplineSet
EndChar

StartChar: hatwidest
Encoding: 100 100 20
Width: 2957
Flags: W
LayerCount: 2
Fore
SplineSet
6 1171 m 1,0,-1
 -6 1229 l 1,1,-1
 1479 1581 l 1,2,-1
 2961 1229 l 1,3,-1
 2949 1171 l 1,4,-1
 1479 1452 l 1,5,-1
 6 1171 l 1,0,-1
EndSplineSet
EndChar

StartChar: radicalBig
Encoding: 113 113 21
Width: 2048
Flags: W
LayerCount: 2
Fore
SplineSet
868 -3604 m 1,0,-1
 403 -1980 l 1,1,-1
 262 -2144 l 1,2,-1
 225 -2105 l 1,3,-1
 518 -1761 l 1,4,-1
 954 -3285 l 1,5,-1
 2011 57 l 2,6,7
 2018 82 2018 82 2048 82 c 0,8,9
 2065 82 2065 82 2077 70 c 128,-1,10
 2089 58 2089 58 2089 41 c 2,11,-1
 2089 33 l 1,12,-1
 948 -3580 l 1,13,14
 936 -3604 936 -3604 913 -3604 c 2,15,-1
 868 -3604 l 1,0,-1
EndSplineSet
EndChar

StartChar: arrowdbltp
Encoding: 126 126 22
Width: 1591
Flags: W
LayerCount: 2
Fore
SplineSet
526 -1229 m 1,0,-1
 526 -481 l 1,1,2
 350 -635 350 -635 115 -727 c 1,3,-1
 115 -639 l 1,4,5
 230 -595 230 -595 330 -531.5 c 128,-1,6
 430 -468 430 -468 518 -385 c 128,-1,7
 606 -302 606 -302 676.5 -205.5 c 128,-1,8
 747 -109 747 -109 797 0 c 1,9,10
 850 -111 850 -111 918 -206 c 128,-1,11
 986 -301 986 -301 1073 -383 c 128,-1,12
 1160 -465 1160 -465 1262.5 -530 c 128,-1,13
 1365 -595 1365 -595 1479 -639 c 1,14,-1
 1479 -727 l 1,15,16
 1361 -680 1361 -680 1260 -620 c 128,-1,17
 1159 -560 1159 -560 1067 -481 c 1,18,-1
 1067 -1229 l 1,19,-1
 979 -1229 l 1,20,-1
 979 -399 l 1,21,22
 875 -293 875 -293 797 -170 c 1,23,24
 717 -295 717 -295 614 -399 c 1,25,-1
 614 -1229 l 1,26,-1
 526 -1229 l 1,0,-1
EndSplineSet
EndChar

StartChar: circleplustext
Encoding: 76 76 23
Width: 2275
Flags: W
LayerCount: 2
Fore
SplineSet
1133 -2048 m 2,0,1
 927 -2048 927 -2048 742 -1968 c 128,-1,2
 557 -1888 557 -1888 415.5 -1745.5 c 128,-1,3
 274 -1603 274 -1603 194.5 -1418.5 c 128,-1,4
 115 -1234 115 -1234 115 -1030 c 2,5,-1
 115 -1020 l 2,6,7
 115 -748 115 -748 252.5 -513 c 128,-1,8
 390 -278 390 -278 624.5 -139 c 128,-1,9
 859 0 859 0 1133 0 c 2,10,-1
 1143 0 l 2,11,12
 1415 0 1415 0 1650 -139 c 128,-1,13
 1885 -278 1885 -278 2022 -513 c 128,-1,14
 2159 -748 2159 -748 2159 -1020 c 2,15,-1
 2159 -1030 l 2,16,17
 2159 -1234 2159 -1234 2080.5 -1418.5 c 128,-1,18
 2002 -1603 2002 -1603 1860.5 -1745 c 128,-1,19
 1719 -1887 1719 -1887 1533.5 -1967.5 c 128,-1,20
 1348 -2048 1348 -2048 1143 -2048 c 2,21,-1
 1133 -2048 l 2,0,1
522 -1645 m 1,22,23
 626 -1748 626 -1748 779.5 -1821 c 128,-1,24
 933 -1894 933 -1894 1063 -1894 c 1,25,-1
 1063 -1100 l 1,26,-1
 268 -1100 l 1,27,28
 268 -1233 268 -1233 343 -1386 c 128,-1,29
 418 -1539 418 -1539 522 -1645 c 1,22,23
1212 -1894 m 1,30,31
 1344 -1894 1344 -1894 1499 -1818 c 128,-1,32
 1654 -1742 1654 -1742 1755 -1642 c 1,33,34
 1821 -1575 1821 -1575 1878 -1482 c 128,-1,35
 1935 -1389 1935 -1389 1970 -1286.5 c 128,-1,36
 2005 -1184 2005 -1184 2005 -1100 c 1,37,-1
 1212 -1100 l 1,38,-1
 1212 -1894 l 1,30,31
268 -950 m 1,39,-1
 1063 -950 l 1,40,-1
 1063 -154 l 1,41,42
 976 -154 976 -154 874.5 -189 c 128,-1,43
 773 -224 773 -224 679 -282 c 128,-1,44
 585 -340 585 -340 518 -406 c 1,45,46
 452 -473 452 -473 395 -566 c 128,-1,47
 338 -659 338 -659 303 -762 c 128,-1,48
 268 -865 268 -865 268 -950 c 1,39,-1
1212 -950 m 1,49,-1
 2005 -950 l 1,50,51
 2005 -815 2005 -815 1928.5 -659 c 128,-1,52
 1852 -503 1852 -503 1751 -403 c 0,53,54
 1687 -339 1687 -339 1595.5 -282 c 128,-1,55
 1504 -225 1504 -225 1403 -189.5 c 128,-1,56
 1302 -154 1302 -154 1212 -154 c 1,57,-1
 1212 -950 l 1,49,-1
EndSplineSet
EndChar

StartChar: productdisplay
Encoding: 89 89 24
Width: 2615
Flags: W
LayerCount: 2
Fore
SplineSet
115 -2867 m 1,0,-1
 115 -2757 l 1,1,2
 451 -2757 451 -2757 451 -2552 c 2,3,-1
 451 -315 l 2,4,5
 451 -111 451 -111 115 -111 c 1,6,-1
 115 0 l 1,7,-1
 2501 0 l 1,8,-1
 2501 -111 l 1,9,10
 2165 -111 2165 -111 2165 -315 c 2,11,-1
 2165 -2552 l 2,12,13
 2165 -2757 2165 -2757 2501 -2757 c 1,14,-1
 2501 -2867 l 1,15,-1
 1507 -2867 l 1,16,-1
 1507 -2757 l 1,17,18
 1843 -2757 1843 -2757 1843 -2552 c 2,19,-1
 1843 -111 l 1,20,-1
 772 -111 l 1,21,-1
 772 -2552 l 2,22,23
 772 -2757 772 -2757 1108 -2757 c 1,24,-1
 1108 -2867 l 1,25,-1
 115 -2867 l 1,0,-1
EndSplineSet
EndChar

StartChar: tildewider
Encoding: 102 102 25
Width: 2048
Flags: W
LayerCount: 2
Fore
SplineSet
23 1270 m 1,0,-1
 0 1317 l 1,1,-1
 82 1358 l 1,2,3
 220 1425 220 1425 326.5 1463 c 128,-1,4
 433 1501 433 1501 524 1518.5 c 128,-1,5
 615 1536 615 1536 690 1536 c 0,6,7
 791 1536 791 1536 871.5 1513 c 128,-1,8
 952 1490 952 1490 1057 1446 c 128,-1,9
 1162 1402 1162 1402 1238 1380 c 128,-1,10
 1314 1358 1314 1358 1413 1358 c 0,11,12
 1534 1358 1534 1358 1679.5 1399 c 128,-1,13
 1825 1440 1825 1440 2023 1536 c 1,14,-1
 2046 1489 l 1,15,-1
 1964 1448 l 1,16,17
 1826 1381 1826 1381 1719.5 1343 c 128,-1,18
 1613 1305 1613 1305 1522 1287.5 c 128,-1,19
 1431 1270 1431 1270 1356 1270 c 0,20,21
 1256 1270 1256 1270 1180 1292 c 128,-1,22
 1104 1314 1104 1314 1000 1357.5 c 128,-1,23
 896 1401 896 1401 814.5 1424.5 c 128,-1,24
 733 1448 733 1448 633 1448 c 0,25,26
 556 1448 556 1448 465 1430.5 c 128,-1,27
 374 1413 374 1413 267.5 1375 c 128,-1,28
 161 1337 161 1337 23 1270 c 1,0,-1
EndSplineSet
EndChar

StartChar: radicalBigg
Encoding: 115 115 26
Width: 2048
Flags: W
LayerCount: 2
Fore
SplineSet
868 -6062 m 1,0,-1
 399 -3336 l 1,1,-1
 262 -3609 l 1,2,-1
 225 -3570 l 1,3,-1
 518 -2990 l 1,4,-1
 956 -5544 l 1,5,-1
 2009 51 l 1,6,7
 2010 64 2010 64 2022.5 73 c 128,-1,8
 2035 82 2035 82 2048 82 c 0,9,10
 2065 82 2065 82 2077 70 c 128,-1,11
 2089 58 2089 58 2089 41 c 2,12,-1
 2089 33 l 1,13,-1
 950 -6031 l 2,14,15
 947 -6043 947 -6043 936.5 -6052.5 c 128,-1,16
 926 -6062 926 -6062 913 -6062 c 2,17,-1
 868 -6062 l 1,0,-1
EndSplineSet
EndChar

StartChar: circlemultiplytext
Encoding: 78 78 27
Width: 2275
Flags: W
LayerCount: 2
Fore
SplineSet
1133 -2048 m 2,0,1
 927 -2048 927 -2048 742 -1968 c 128,-1,2
 557 -1888 557 -1888 415.5 -1745.5 c 128,-1,3
 274 -1603 274 -1603 194.5 -1418.5 c 128,-1,4
 115 -1234 115 -1234 115 -1030 c 2,5,-1
 115 -1020 l 2,6,7
 115 -748 115 -748 252.5 -513 c 128,-1,8
 390 -278 390 -278 624.5 -139 c 128,-1,9
 859 0 859 0 1133 0 c 2,10,-1
 1143 0 l 2,11,12
 1415 0 1415 0 1650 -139 c 128,-1,13
 1885 -278 1885 -278 2022 -513 c 128,-1,14
 2159 -748 2159 -748 2159 -1020 c 2,15,-1
 2159 -1030 l 2,16,17
 2159 -1234 2159 -1234 2080.5 -1418.5 c 128,-1,18
 2002 -1603 2002 -1603 1860.5 -1745 c 128,-1,19
 1719 -1887 1719 -1887 1533.5 -1967.5 c 128,-1,20
 1348 -2048 1348 -2048 1143 -2048 c 2,21,-1
 1133 -2048 l 2,0,1
575 -1694 m 1,22,23
 693 -1792 693 -1792 837.5 -1845 c 128,-1,24
 982 -1898 982 -1898 1137 -1898 c 0,25,26
 1291 -1898 1291 -1898 1435.5 -1845 c 128,-1,27
 1580 -1792 1580 -1792 1698 -1694 c 1,28,-1
 1137 -1130 l 1,29,-1
 575 -1694 l 1,22,23
469 -1587 m 1,30,-1
 1032 -1024 l 1,31,-1
 469 -461 l 1,32,33
 370 -578 370 -578 317 -725 c 128,-1,34
 264 -872 264 -872 264 -1024 c 0,35,36
 264 -1174 264 -1174 316.5 -1320.5 c 128,-1,37
 369 -1467 369 -1467 469 -1587 c 1,30,-1
1804 -1587 m 1,38,39
 1903 -1470 1903 -1470 1956 -1324.5 c 128,-1,40
 2009 -1179 2009 -1179 2009 -1024 c 0,41,42
 2009 -921 2009 -921 1985.5 -822 c 128,-1,43
 1962 -723 1962 -723 1916.5 -631.5 c 128,-1,44
 1871 -540 1871 -540 1804 -461 c 1,45,-1
 1241 -1024 l 1,46,-1
 1804 -1587 l 1,38,39
1137 -918 m 1,47,-1
 1698 -354 l 1,48,49
 1580 -254 1580 -254 1435.5 -202 c 128,-1,50
 1291 -150 1291 -150 1137 -150 c 0,51,52
 982 -150 982 -150 837.5 -202 c 128,-1,53
 693 -254 693 -254 575 -354 c 1,54,-1
 1137 -918 l 1,47,-1
EndSplineSet
EndChar

StartChar: uniondisplay
Encoding: 91 91 28
Width: 2275
Flags: W
LayerCount: 2
Fore
SplineSet
115 -1886 m 2,0,-1
 115 -84 l 1,1,2
 125 -10 125 -10 199 0 c 1,3,-1
 209 0 l 1,4,5
 283 -10 283 -10 293 -84 c 1,6,-1
 293 -1876 l 2,7,8
 293 -2043 293 -2043 359.5 -2193 c 128,-1,9
 426 -2343 426 -2343 546 -2455.5 c 128,-1,10
 666 -2568 666 -2568 818.5 -2628.5 c 128,-1,11
 971 -2689 971 -2689 1137 -2689 c 0,12,13
 1304 -2689 1304 -2689 1456 -2628.5 c 128,-1,14
 1608 -2568 1608 -2568 1727.5 -2455.5 c 128,-1,15
 1847 -2343 1847 -2343 1913.5 -2195 c 128,-1,16
 1980 -2047 1980 -2047 1980 -1876 c 2,17,-1
 1980 -84 l 1,18,19
 1991 -9 1991 -9 2064 0 c 1,20,-1
 2075 0 l 1,21,22
 2111 -4 2111 -4 2133 -27 c 128,-1,23
 2155 -50 2155 -50 2159 -84 c 1,24,-1
 2159 -1886 l 2,25,26
 2159 -2087 2159 -2087 2077.5 -2268.5 c 128,-1,27
 1996 -2450 1996 -2450 1854 -2583 c 128,-1,28
 1712 -2716 1712 -2716 1526.5 -2791.5 c 128,-1,29
 1341 -2867 1341 -2867 1143 -2867 c 2,30,-1
 1133 -2867 l 2,31,32
 934 -2867 934 -2867 749.5 -2792.5 c 128,-1,33
 565 -2718 565 -2718 421 -2582.5 c 128,-1,34
 277 -2447 277 -2447 196 -2267 c 128,-1,35
 115 -2087 115 -2087 115 -1886 c 2,0,-1
EndSplineSet
EndChar

StartChar: bracketleftBig
Encoding: 104 104 29
Width: 967
Flags: W
LayerCount: 2
Fore
SplineSet
463 -3602 m 1,0,-1
 463 82 l 1,1,-1
 928 82 l 1,2,-1
 928 -16 l 1,3,-1
 561 -16 l 1,4,-1
 561 -3504 l 1,5,-1
 928 -3504 l 1,6,-1
 928 -3602 l 1,7,-1
 463 -3602 l 1,0,-1
EndSplineSet
EndChar

StartChar: radicalvertex
Encoding: 117 117 30
Width: 2161
Flags: W
LayerCount: 2
Fore
SplineSet
1438 -1233 m 2,0,-1
 1438 4 l 2,1,2
 1438 20 1438 20 1450 30.5 c 128,-1,3
 1462 41 1462 41 1479 41 c 0,4,5
 1494 41 1494 41 1507 30.5 c 128,-1,6
 1520 20 1520 20 1520 4 c 2,7,-1
 1520 -1233 l 2,8,9
 1520 -1248 1520 -1248 1507 -1259 c 128,-1,10
 1494 -1270 1494 -1270 1479 -1270 c 0,11,12
 1462 -1270 1462 -1270 1450 -1259 c 128,-1,13
 1438 -1248 1438 -1248 1438 -1233 c 2,0,-1
EndSplineSet
EndChar

StartChar: summationtext
Encoding: 80 80 31
Width: 2161
Flags: W
LayerCount: 2
Fore
SplineSet
135 -2048 m 2,0,1
 115 -2048 115 -2048 115 -2025 c 0,2,3
 115 -2017 115 -2017 121 -2011 c 2,4,-1
 866 -1100 l 1,5,-1
 121 -74 l 1,6,7
 115 -68 115 -68 115 -63 c 2,8,-1
 115 -18 l 2,9,10
 115 -11 115 -11 121.5 -5.5 c 128,-1,11
 128 0 128 0 135 0 c 2,12,-1
 1870 0 l 1,13,-1
 2046 -479 l 1,14,-1
 1987 -479 l 1,15,16
 1936 -339 1936 -339 1832.5 -256.5 c 128,-1,17
 1729 -174 1729 -174 1596 -136.5 c 128,-1,18
 1463 -99 1463 -99 1337 -90.5 c 128,-1,19
 1211 -82 1211 -82 1030 -82 c 2,20,-1
 346 -82 l 1,21,-1
 1022 -1010 l 1,22,23
 1028 -1016 1028 -1016 1028 -1024 c 256,24,25
 1028 -1032 1028 -1032 1022 -1038 c 2,26,-1
 291 -1931 l 1,27,-1
 1042 -1931 l 2,28,29
 1220 -1931 1220 -1931 1345 -1922.5 c 128,-1,30
 1470 -1914 1470 -1914 1602 -1877.5 c 128,-1,31
 1734 -1841 1734 -1841 1836.5 -1757.5 c 128,-1,32
 1939 -1674 1939 -1674 1987 -1534 c 1,33,-1
 2046 -1534 l 1,34,-1
 1870 -2048 l 1,35,-1
 135 -2048 l 2,0,1
EndSplineSet
EndChar

StartChar: unionmultidisplay
Encoding: 93 93 32
Width: 2275
Flags: W
LayerCount: 2
Fore
SplineSet
115 -1886 m 2,0,-1
 115 -84 l 1,1,2
 125 -10 125 -10 199 0 c 1,3,-1
 209 0 l 1,4,5
 283 -10 283 -10 293 -84 c 1,6,-1
 293 -1876 l 2,7,8
 293 -2043 293 -2043 359.5 -2193 c 128,-1,9
 426 -2343 426 -2343 546 -2455.5 c 128,-1,10
 666 -2568 666 -2568 818.5 -2628.5 c 128,-1,11
 971 -2689 971 -2689 1137 -2689 c 0,12,13
 1304 -2689 1304 -2689 1456 -2628.5 c 128,-1,14
 1608 -2568 1608 -2568 1727.5 -2455.5 c 128,-1,15
 1847 -2343 1847 -2343 1913.5 -2195 c 128,-1,16
 1980 -2047 1980 -2047 1980 -1876 c 2,17,-1
 1980 -84 l 1,18,19
 1991 -9 1991 -9 2064 0 c 1,20,-1
 2075 0 l 1,21,22
 2111 -4 2111 -4 2133 -27 c 128,-1,23
 2155 -50 2155 -50 2159 -84 c 1,24,-1
 2159 -1886 l 2,25,26
 2159 -2087 2159 -2087 2077.5 -2268.5 c 128,-1,27
 1996 -2450 1996 -2450 1854 -2583 c 128,-1,28
 1712 -2716 1712 -2716 1526.5 -2791.5 c 128,-1,29
 1341 -2867 1341 -2867 1143 -2867 c 2,30,-1
 1133 -2867 l 2,31,32
 934 -2867 934 -2867 749.5 -2792.5 c 128,-1,33
 565 -2718 565 -2718 421 -2582.5 c 128,-1,34
 277 -2447 277 -2447 196 -2267 c 128,-1,35
 115 -2087 115 -2087 115 -1886 c 2,0,-1
555 -1442 m 1,36,37
 481 -1432 481 -1432 471 -1358 c 1,38,-1
 471 -1348 l 1,39,40
 480 -1274 480 -1274 555 -1264 c 1,41,-1
 1049 -1264 l 1,42,-1
 1049 -772 l 1,43,44
 1052 -735 1052 -735 1074 -713 c 128,-1,45
 1096 -691 1096 -691 1133 -688 c 1,46,-1
 1143 -688 l 1,47,48
 1177 -691 1177 -691 1200 -714 c 128,-1,49
 1223 -737 1223 -737 1227 -772 c 1,50,-1
 1227 -1264 l 1,51,-1
 1718 -1264 l 1,52,53
 1753 -1268 1753 -1268 1775 -1289.5 c 128,-1,54
 1797 -1311 1797 -1311 1802 -1348 c 1,55,-1
 1802 -1358 l 1,56,57
 1792 -1432 1792 -1432 1718 -1442 c 1,58,-1
 1227 -1442 l 1,59,-1
 1227 -1935 l 1,60,61
 1223 -1968 1223 -1968 1199.5 -1991.5 c 128,-1,62
 1176 -2015 1176 -2015 1143 -2019 c 1,63,-1
 1133 -2019 l 1,64,65
 1096 -2014 1096 -2014 1074 -1992.5 c 128,-1,66
 1052 -1971 1052 -1971 1049 -1935 c 1,67,-1
 1049 -1442 l 1,68,-1
 555 -1442 l 1,36,37
EndSplineSet
EndChar

StartChar: floorleftBig
Encoding: 106 106 33
Width: 1079
Flags: W
LayerCount: 2
Fore
SplineSet
463 -3602 m 1,0,-1
 463 82 l 1,1,-1
 561 82 l 1,2,-1
 561 -3504 l 1,3,-1
 1042 -3504 l 1,4,-1
 1042 -3602 l 1,5,-1
 463 -3602 l 1,0,-1
EndSplineSet
EndChar

StartChar: arrowvertexdbl
Encoding: 119 119 34
Width: 1591
Flags: W
LayerCount: 2
Fore
SplineSet
526 -1231 m 1,0,-1
 526 2 l 1,1,-1
 614 2 l 1,2,-1
 614 -1231 l 1,3,-1
 526 -1231 l 1,0,-1
979 -1231 m 1,4,-1
 979 2 l 1,5,-1
 1067 2 l 1,6,-1
 1067 -1231 l 1,7,-1
 979 -1231 l 1,4,-1
EndSplineSet
EndChar

StartChar: angbracketrightBig
Encoding: 69 69 35
Width: 1251
Flags: W
LayerCount: 2
Fore
SplineSet
180 -3561 m 1,0,-1
 180 -3551 l 1,1,2
 181 -3548 181 -3548 181.5 -3545.5 c 128,-1,3
 182 -3543 182 -3543 182 -3541 c 2,4,-1
 918 -1761 l 1,5,-1
 182 18 l 1,6,7
 180 18 180 18 180 29 c 2,8,-1
 180 39 l 1,9,10
 187 76 187 76 225 82 c 1,11,-1
 236 82 l 2,12,13
 263 82 263 82 274 55 c 2,14,-1
 1018 -1747 l 1,15,16
 1020 -1747 1020 -1747 1020 -1757 c 2,17,-1
 1020 -1767 l 1,18,19
 1018 -1767 1018 -1767 1018 -1778 c 1,20,-1
 276 -3572 l 1,21,22
 264 -3604 264 -3604 236 -3604 c 2,23,-1
 225 -3604 l 1,24,25
 186 -3598 186 -3598 180 -3561 c 1,0,-1
EndSplineSet
EndChar

StartChar: integraltext
Encoding: 82 82 36
Width: 967
Flags: W
LayerCount: 2
Fore
SplineSet
215 -2177 m 1,0,1
 266 -2222 266 -2222 342 -2222 c 0,2,3
 470 -2222 470 -2222 520 -2032 c 1,4,5
 537 -1962 537 -1962 553 -1802 c 1,6,7
 561 -1702 561 -1702 566 -1633 c 128,-1,8
 571 -1564 571 -1564 577 -1483.5 c 128,-1,9
 583 -1403 583 -1403 589 -1326 c 128,-1,10
 595 -1249 595 -1249 606 -1137 c 1,11,12
 614 -1070 614 -1070 625.5 -965.5 c 128,-1,13
 637 -861 637 -861 648 -773.5 c 128,-1,14
 659 -686 659 -686 667 -629 c 128,-1,15
 675 -572 675 -572 688 -469 c 1,16,17
 718 -277 718 -277 792 -138.5 c 128,-1,18
 866 0 866 0 1020 0 c 0,19,20
 1074 0 1074 0 1127.5 -23 c 128,-1,21
 1181 -46 1181 -46 1214 -89 c 128,-1,22
 1247 -132 1247 -132 1247 -188 c 0,23,24
 1247 -225 1247 -225 1221.5 -250.5 c 128,-1,25
 1196 -276 1196 -276 1159 -276 c 256,26,27
 1122 -276 1122 -276 1095.5 -250.5 c 128,-1,28
 1069 -225 1069 -225 1069 -188 c 0,29,30
 1069 -152 1069 -152 1091 -127.5 c 128,-1,31
 1113 -103 1113 -103 1147 -98 c 1,32,33
 1095 -53 1095 -53 1020 -53 c 0,34,35
 919 -53 919 -53 872 -219 c 1,36,37
 855 -291 855 -291 838 -473 c 1,38,39
 833 -542 833 -542 826.5 -626 c 128,-1,40
 820 -710 820 -710 812.5 -810.5 c 128,-1,41
 805 -911 805 -911 797.5 -998.5 c 128,-1,42
 790 -1086 790 -1086 784 -1141 c 0,43,44
 773 -1251 773 -1251 766 -1311 c 128,-1,45
 759 -1371 759 -1371 746.5 -1466.5 c 128,-1,46
 734 -1562 734 -1562 722 -1656 c 128,-1,47
 710 -1750 710 -1750 702 -1806 c 0,48,49
 686 -1920 686 -1920 645.5 -2025 c 128,-1,50
 605 -2130 605 -2130 528.5 -2202.5 c 128,-1,51
 452 -2275 452 -2275 342 -2275 c 0,52,53
 288 -2275 288 -2275 234.5 -2252 c 128,-1,54
 181 -2229 181 -2229 148 -2186.5 c 128,-1,55
 115 -2144 115 -2144 115 -2089 c 0,56,57
 115 -2051 115 -2051 141 -2025 c 128,-1,58
 167 -1999 167 -1999 205 -1999 c 0,59,60
 229 -1999 229 -1999 249.5 -2010.5 c 128,-1,61
 270 -2022 270 -2022 281.5 -2042 c 128,-1,62
 293 -2062 293 -2062 293 -2089 c 0,63,64
 293 -2110 293 -2110 283 -2130 c 128,-1,65
 273 -2150 273 -2150 256 -2162 c 128,-1,66
 239 -2174 239 -2174 215 -2177 c 1,0,1
EndSplineSet
EndChar

StartChar: logicalordisplay
Encoding: 95 95 37
Width: 2275
Flags: W
LayerCount: 2
Fore
SplineSet
1055 -2814 m 1,0,-1
 119 -117 l 1,1,2
 115 -101 115 -101 115 -94 c 2,3,-1
 115 -84 l 1,4,5
 125 -10 125 -10 199 0 c 1,6,-1
 209 0 l 1,7,8
 257 -5 257 -5 287 -53 c 1,9,-1
 1137 -2507 l 1,10,-1
 1989 -53 l 1,11,12
 2014 -6 2014 -6 2064 0 c 1,13,-1
 2075 0 l 1,14,15
 2111 -4 2111 -4 2133 -27 c 128,-1,16
 2155 -50 2155 -50 2159 -84 c 1,17,-1
 2159 -94 l 1,18,19
 2157 -104 2157 -104 2155.5 -110.5 c 128,-1,20
 2154 -117 2154 -117 2152 -125 c 2,21,-1
 1219 -2814 l 1,22,23
 1193 -2861 1193 -2861 1143 -2867 c 1,24,-1
 1133 -2867 l 1,25,26
 1079 -2861 1079 -2861 1055 -2814 c 1,0,-1
EndSplineSet
EndChar

StartChar: ceilingleftBig
Encoding: 108 108 38
Width: 1079
Flags: W
LayerCount: 2
Fore
SplineSet
463 -3602 m 1,0,-1
 463 82 l 1,1,-1
 1042 82 l 1,2,-1
 1042 -16 l 1,3,-1
 561 -16 l 1,4,-1
 561 -3602 l 1,5,-1
 463 -3602 l 1,0,-1
EndSplineSet
EndChar

StartChar: arrowbt
Encoding: 121 121 39
Width: 1364
Flags: W
LayerCount: 2
Fore
SplineSet
227 -858 m 1,0,-1
 227 -776 l 1,1,2
 454 -852 454 -852 639 -1042 c 1,3,-1
 639 0 l 1,4,-1
 727 0 l 1,5,-1
 727 -1042 l 1,6,7
 912 -852 912 -852 1139 -776 c 1,8,-1
 1139 -858 l 1,9,10
 996 -908 996 -908 878 -1004 c 128,-1,11
 760 -1100 760 -1100 684 -1229 c 1,12,13
 607 -1099 607 -1099 487.5 -1003 c 128,-1,14
 368 -907 368 -907 227 -858 c 1,0,-1
EndSplineSet
EndChar

StartChar: unionsqdisplay
Encoding: 71 71 40
Width: 2275
Flags: W
LayerCount: 2
Fore
SplineSet
115 -2783 m 1,0,-1
 115 -1430 l 1,1,-1
 115 -84 l 1,2,3
 125 -10 125 -10 199 0 c 1,4,-1
 209 0 l 1,5,6
 283 -10 283 -10 293 -84 c 1,7,-1
 293 -1440 l 1,8,-1
 293 -2689 l 1,9,-1
 1980 -2689 l 1,10,-1
 1980 -1430 l 1,11,-1
 1980 -84 l 1,12,13
 1991 -9 1991 -9 2064 0 c 1,14,-1
 2075 0 l 1,15,16
 2111 -4 2111 -4 2133 -27 c 128,-1,17
 2155 -50 2155 -50 2159 -84 c 1,18,-1
 2159 -1440 l 1,19,-1
 2159 -2783 l 1,20,21
 2148 -2858 2148 -2858 2075 -2867 c 1,22,-1
 199 -2867 l 1,23,24
 125 -2857 125 -2857 115 -2783 c 1,0,-1
EndSplineSet
EndChar

StartChar: intersectiontext
Encoding: 84 84 41
Width: 1706
Flags: W
LayerCount: 2
Fore
SplineSet
115 -1978 m 1,0,-1
 115 -702 l 2,1,2
 115 -509 115 -509 216 -348 c 128,-1,3
 317 -187 317 -187 487.5 -93.5 c 128,-1,4
 658 0 658 0 848 0 c 2,5,-1
 858 0 l 2,6,7
 1001 0 1001 0 1133.5 -53.5 c 128,-1,8
 1266 -107 1266 -107 1369.5 -203.5 c 128,-1,9
 1473 -300 1473 -300 1531 -427.5 c 128,-1,10
 1589 -555 1589 -555 1589 -702 c 2,11,-1
 1589 -1978 l 1,12,13
 1580 -2039 1580 -2039 1520 -2048 c 1,14,-1
 1509 -2048 l 1,15,16
 1449 -2039 1449 -2039 1440 -1978 c 1,17,-1
 1440 -713 l 2,18,19
 1440 -596 1440 -596 1393.5 -492 c 128,-1,20
 1347 -388 1347 -388 1265.5 -311 c 128,-1,21
 1184 -234 1184 -234 1077 -192 c 128,-1,22
 970 -150 970 -150 852 -150 c 0,23,24
 736 -150 736 -150 628.5 -192 c 128,-1,25
 521 -234 521 -234 438.5 -311 c 128,-1,26
 356 -388 356 -388 310 -491 c 128,-1,27
 264 -594 264 -594 264 -713 c 2,28,-1
 264 -1978 l 1,29,30
 255 -2039 255 -2039 195 -2048 c 1,31,-1
 184 -2048 l 1,32,33
 124 -2039 124 -2039 115 -1978 c 1,0,-1
EndSplineSet
EndChar

StartChar: coproductdisplay
Encoding: 97 97 42
Width: 2615
Flags: W
LayerCount: 2
Fore
SplineSet
115 -2867 m 1,0,-1
 115 -2757 l 1,1,2
 451 -2757 451 -2757 451 -2552 c 2,3,-1
 451 -315 l 2,4,5
 451 -111 451 -111 115 -111 c 1,6,-1
 115 0 l 1,7,-1
 1108 0 l 1,8,-1
 1108 -111 l 1,9,10
 772 -111 772 -111 772 -315 c 2,11,-1
 772 -2757 l 1,12,-1
 1843 -2757 l 1,13,-1
 1843 -315 l 2,14,15
 1843 -111 1843 -111 1507 -111 c 1,16,-1
 1507 0 l 1,17,-1
 2501 0 l 1,18,-1
 2501 -111 l 1,19,20
 2165 -111 2165 -111 2165 -315 c 2,21,-1
 2165 -2552 l 2,22,23
 2165 -2757 2165 -2757 2501 -2757 c 1,24,-1
 2501 -2867 l 1,25,-1
 115 -2867 l 1,0,-1
EndSplineSet
EndChar

StartChar: braceleftBig
Encoding: 110 110 43
Width: 1364
Flags: W
LayerCount: 2
Fore
SplineSet
725 -3412 m 256,0,1
 668 -3355 668 -3355 634 -3283 c 128,-1,2
 600 -3211 600 -3211 600 -3135 c 2,3,-1
 600 -2234 l 2,4,5
 600 -2089 600 -2089 502 -1975.5 c 128,-1,6
 404 -1862 404 -1862 258 -1800 c 1,7,8
 244 -1797 244 -1797 244 -1784 c 2,9,-1
 244 -1737 l 2,10,11
 244 -1724 244 -1724 258 -1720 c 1,12,13
 349 -1682 349 -1682 427.5 -1618 c 128,-1,14
 506 -1554 506 -1554 553 -1469 c 128,-1,15
 600 -1384 600 -1384 600 -1286 c 2,16,-1
 600 -385 l 2,17,18
 600 -308 600 -308 634 -236 c 128,-1,19
 668 -164 668 -164 725 -109 c 1,20,21
 782 -52 782 -52 881.5 5.5 c 128,-1,22
 981 63 981 63 1057 82 c 1,23,-1
 1104 82 l 2,24,25
 1110 82 1110 82 1115 77 c 128,-1,26
 1120 72 1120 72 1120 66 c 2,27,-1
 1120 18 l 2,28,29
 1120 6 1120 6 1108 2 c 0,30,31
 1018 -33 1018 -33 939.5 -88.5 c 128,-1,32
 861 -144 861 -144 812.5 -220.5 c 128,-1,33
 764 -297 764 -297 764 -389 c 2,34,-1
 764 -1290 l 2,35,36
 764 -1374 764 -1374 729.5 -1448 c 128,-1,37
 695 -1522 695 -1522 639 -1580 c 128,-1,38
 583 -1638 583 -1638 511.5 -1683 c 128,-1,39
 440 -1728 440 -1728 360 -1761 c 1,40,41
 532 -1831 532 -1831 648 -1949.5 c 128,-1,42
 764 -2068 764 -2068 764 -2230 c 2,43,-1
 764 -3131 l 2,44,45
 764 -3266 764 -3266 863 -3366 c 128,-1,46
 962 -3466 962 -3466 1108 -3523 c 0,47,48
 1120 -3527 1120 -3527 1120 -3539 c 2,49,-1
 1120 -3586 l 2,50,51
 1120 -3592 1120 -3592 1115 -3597 c 128,-1,52
 1110 -3602 1110 -3602 1104 -3602 c 2,53,-1
 1057 -3602 l 1,54,55
 983 -3584 983 -3584 882.5 -3526.5 c 128,-1,56
 782 -3469 782 -3469 725 -3412 c 256,0,1
EndSplineSet
EndChar

StartChar: bracehtipdownright
Encoding: 123 123 44
Width: 922
Flags: W
LayerCount: 2
Fore
SplineSet
-2 0 m 0,0,1
 -20 0 -20 0 -20 18 c 2,2,-1
 -20 229 l 2,3,4
 -20 246 -20 246 2 246 c 0,5,6
 151 246 151 246 295 203.5 c 128,-1,7
 439 161 439 161 565 81.5 c 128,-1,8
 691 2 691 2 794 -107.5 c 128,-1,9
 897 -217 897 -217 967 -348 c 1,10,11
 971 -352 971 -352 971 -358 c 2,12,-1
 971 -422 l 2,13,14
 971 -428 971 -428 966 -433 c 128,-1,15
 961 -438 961 -438 954 -438 c 2,16,-1
 891 -438 l 2,17,18
 883 -438 883 -438 877 -432 c 1,19,20
 814 -320 814 -320 715 -235.5 c 128,-1,21
 616 -151 616 -151 501 -100 c 128,-1,22
 386 -49 386 -49 256.5 -24.5 c 128,-1,23
 127 0 127 0 -2 0 c 0,0,1
EndSplineSet
EndChar

StartChar: contintegraldisplay
Encoding: 73 73 45
Width: 1137
Flags: W
LayerCount: 2
Fore
SplineSet
217 -4446 m 1,0,1
 268 -4497 268 -4497 342 -4497 c 256,2,3
 416 -4497 416 -4497 477 -4395.5 c 128,-1,4
 538 -4294 538 -4294 584 -4142 c 128,-1,5
 630 -3990 630 -3990 651.5 -3887.5 c 128,-1,6
 673 -3785 673 -3785 705 -3623 c 0,7,8
 743 -3431 743 -3431 785 -3181.5 c 128,-1,9
 827 -2932 827 -2932 852 -2785 c 1,10,11
 751 -2741 751 -2741 674.5 -2664 c 128,-1,12
 598 -2587 598 -2587 556 -2485 c 128,-1,13
 514 -2383 514 -2383 514 -2275 c 0,14,15
 514 -2128 514 -2128 587.5 -2000.5 c 128,-1,16
 661 -1873 661 -1873 788 -1797.5 c 128,-1,17
 915 -1722 915 -1722 1063 -1722 c 1,18,19
 1089 -1609 1089 -1609 1106 -1531.5 c 128,-1,20
 1123 -1454 1123 -1454 1140.5 -1377.5 c 128,-1,21
 1158 -1301 1158 -1301 1202 -1118 c 128,-1,22
 1246 -935 1246 -935 1249 -924 c 2,23,-1
 1276 -817 l 2,24,25
 1322 -637 1322 -637 1347 -544.5 c 128,-1,26
 1372 -452 1372 -452 1424.5 -318.5 c 128,-1,27
 1477 -185 1477 -185 1548 -92.5 c 128,-1,28
 1619 0 1619 0 1704 0 c 0,29,30
 1764 0 1764 0 1815.5 -27 c 128,-1,31
 1867 -54 1867 -54 1899 -101 c 128,-1,32
 1931 -148 1931 -148 1931 -209 c 0,33,34
 1931 -253 1931 -253 1902 -282 c 128,-1,35
 1873 -311 1873 -311 1829 -311 c 0,36,37
 1784 -311 1784 -311 1754 -282 c 128,-1,38
 1724 -253 1724 -253 1724 -209 c 0,39,40
 1724 -164 1724 -164 1754 -134 c 128,-1,41
 1784 -104 1784 -104 1829 -104 c 1,42,43
 1776 -53 1776 -53 1706 -53 c 0,44,45
 1652 -53 1652 -53 1586.5 -262.5 c 128,-1,46
 1521 -472 1521 -472 1465.5 -743.5 c 128,-1,47
 1410 -1015 1410 -1015 1358.5 -1309.5 c 128,-1,48
 1307 -1604 1307 -1604 1280 -1765 c 1,49,50
 1356 -1796 1356 -1796 1419 -1849 c 128,-1,51
 1482 -1902 1482 -1902 1525.5 -1968 c 128,-1,52
 1569 -2034 1569 -2034 1593.5 -2112 c 128,-1,53
 1618 -2190 1618 -2190 1618 -2275 c 0,54,55
 1618 -2387 1618 -2387 1575 -2488 c 128,-1,56
 1532 -2589 1532 -2589 1457 -2664.5 c 128,-1,57
 1382 -2740 1382 -2740 1280.5 -2784 c 128,-1,58
 1179 -2828 1179 -2828 1069 -2828 c 1,59,60
 993 -3178 993 -3178 883 -3627 c 1,61,-1
 858 -3721 l 1,62,63
 805 -3938 805 -3938 751.5 -4102.5 c 128,-1,64
 698 -4267 698 -4267 594.5 -4409 c 128,-1,65
 491 -4551 491 -4551 342 -4551 c 0,66,67
 253 -4551 253 -4551 184 -4491 c 128,-1,68
 115 -4431 115 -4431 115 -4344 c 0,69,70
 115 -4299 115 -4299 145 -4269 c 128,-1,71
 175 -4239 175 -4239 219 -4239 c 0,72,73
 248 -4239 248 -4239 271.5 -4253 c 128,-1,74
 295 -4267 295 -4267 308.5 -4291 c 128,-1,75
 322 -4315 322 -4315 322 -4344 c 0,76,77
 322 -4388 322 -4388 292 -4417 c 128,-1,78
 262 -4446 262 -4446 217 -4446 c 1,0,1
1085 -2746 m 1,79,80
 1207 -2746 1207 -2746 1311 -2679.5 c 128,-1,81
 1415 -2613 1415 -2613 1475.5 -2504.5 c 128,-1,82
 1536 -2396 1536 -2396 1536 -2275 c 0,83,84
 1536 -2188 1536 -2188 1503 -2103 c 128,-1,85
 1470 -2018 1470 -2018 1409 -1952.5 c 128,-1,86
 1348 -1887 1348 -1887 1266 -1849 c 1,87,88
 1245 -1967 1245 -1967 1213 -2130.5 c 128,-1,89
 1181 -2294 1181 -2294 1141.5 -2481 c 128,-1,90
 1102 -2668 1102 -2668 1085 -2746 c 1,79,80
866 -2703 m 1,91,92
 942 -2281 942 -2281 1047 -1804 c 1,93,94
 924 -1804 924 -1804 821 -1870.5 c 128,-1,95
 718 -1937 718 -1937 657 -2045.5 c 128,-1,96
 596 -2154 596 -2154 596 -2275 c 0,97,98
 596 -2410 596 -2410 669.5 -2527.5 c 128,-1,99
 743 -2645 743 -2645 866 -2703 c 1,91,92
EndSplineSet
EndChar

StartChar: logicalandtext
Encoding: 86 86 46
Width: 1706
Flags: W
LayerCount: 2
Fore
SplineSet
115 -1978 m 1,0,-1
 115 -1968 l 2,1,2
 115 -1958 115 -1958 119 -1950 c 1,3,-1
 782 -51 l 2,4,5
 798 -6 798 -6 848 0 c 1,6,-1
 858 0 l 1,7,8
 905 -7 905 -7 924 -51 c 1,9,-1
 1585 -1950 l 1,10,11
 1589 -1958 1589 -1958 1589 -1968 c 2,12,-1
 1589 -1978 l 1,13,14
 1580 -2039 1580 -2039 1520 -2048 c 1,15,-1
 1509 -2048 l 1,16,17
 1462 -2042 1462 -2042 1444 -1999 c 1,18,-1
 852 -301 l 1,19,-1
 260 -1999 l 1,20,21
 242 -2042 242 -2042 195 -2048 c 1,22,-1
 184 -2048 l 1,23,24
 124 -2039 124 -2039 115 -1978 c 1,0,-1
EndSplineSet
EndChar

StartChar: hatwider
Encoding: 99 99 47
Width: 2048
Flags: W
LayerCount: 2
Fore
SplineSet
8 1171 m 1,0,-1
 -8 1229 l 1,1,-1
 1024 1581 l 1,2,-1
 2054 1229 l 1,3,-1
 2038 1171 l 1,4,-1
 1024 1452 l 1,5,-1
 8 1171 l 1,0,-1
EndSplineSet
EndChar

StartChar: radicalbig
Encoding: 112 112 48
Width: 2048
Flags: W
LayerCount: 2
Fore
SplineSet
868 -2376 m 1,0,-1
 406 -1300 l 1,1,-1
 262 -1411 l 1,2,-1
 225 -1374 l 1,3,-1
 518 -1147 l 1,4,-1
 950 -2152 l 1,5,-1
 2013 63 l 2,6,7
 2023 82 2023 82 2048 82 c 0,8,9
 2065 82 2065 82 2077 70 c 128,-1,10
 2089 58 2089 58 2089 41 c 0,11,12
 2089 31 2089 31 2087 27 c 2,13,-1
 944 -2357 l 1,14,15
 936 -2376 936 -2376 913 -2376 c 2,16,-1
 868 -2376 l 1,0,-1
EndSplineSet
EndChar

StartChar: bracehtipupright
Encoding: 125 125 49
Width: 922
Flags: W
LayerCount: 2
Fore
SplineSet
-20 18 m 2,0,-1
 -20 229 l 2,1,2
 -20 235 -20 235 -13.5 240.5 c 128,-1,3
 -7 246 -7 246 -2 246 c 0,4,5
 126 246 126 246 256.5 271.5 c 128,-1,6
 387 297 387 297 502 348 c 128,-1,7
 617 399 617 399 715.5 483 c 128,-1,8
 814 567 814 567 877 678 c 1,9,10
 883 684 883 684 891 684 c 2,11,-1
 954 684 l 2,12,13
 961 684 961 684 966 679 c 128,-1,14
 971 674 971 674 971 668 c 2,15,-1
 971 604 l 2,16,17
 971 598 971 598 967 594 c 1,18,19
 897 463 897 463 794 354 c 128,-1,20
 691 245 691 245 565 166 c 128,-1,21
 439 87 439 87 295 43.5 c 128,-1,22
 151 0 151 0 2 0 c 0,23,24
 -20 0 -20 0 -20 18 c 2,0,-1
EndSplineSet
EndChar

StartChar: circledotdisplay
Encoding: 75 75 50
Width: 3095
Flags: W
LayerCount: 2
Fore
SplineSet
1542 -2867 m 2,0,1
 1158 -2867 1158 -2867 829.5 -2674 c 128,-1,2
 501 -2481 501 -2481 308 -2151 c 128,-1,3
 115 -1821 115 -1821 115 -1440 c 2,4,-1
 115 -1430 l 2,5,6
 115 -1047 115 -1047 308 -717 c 128,-1,7
 501 -387 501 -387 829.5 -193.5 c 128,-1,8
 1158 0 1158 0 1542 0 c 2,9,-1
 1552 0 l 2,10,11
 1937 0 1937 0 2265 -193.5 c 128,-1,12
 2593 -387 2593 -387 2785.5 -717 c 128,-1,13
 2978 -1047 2978 -1047 2978 -1430 c 2,14,-1
 2978 -1440 l 2,15,16
 2978 -1821 2978 -1821 2785.5 -2151 c 128,-1,17
 2593 -2481 2593 -2481 2265 -2674 c 128,-1,18
 1937 -2867 1937 -2867 1552 -2867 c 2,19,-1
 1542 -2867 l 2,0,1
1546 -2689 m 0,20,21
 1802 -2689 1802 -2689 2032 -2591 c 128,-1,22
 2262 -2493 2262 -2493 2433.5 -2320.5 c 128,-1,23
 2605 -2148 2605 -2148 2702.5 -1918 c 128,-1,24
 2800 -1688 2800 -1688 2800 -1434 c 0,25,26
 2800 -1179 2800 -1179 2702 -948 c 128,-1,27
 2604 -717 2604 -717 2433 -545.5 c 128,-1,28
 2262 -374 2262 -374 2032 -276 c 128,-1,29
 1802 -178 1802 -178 1546 -178 c 0,30,31
 1206 -178 1206 -178 918 -347 c 128,-1,32
 630 -516 630 -516 461.5 -806 c 128,-1,33
 293 -1096 293 -1096 293 -1434 c 0,34,35
 293 -1771 293 -1771 461.5 -2061 c 128,-1,36
 630 -2351 630 -2351 918 -2520 c 128,-1,37
 1206 -2689 1206 -2689 1546 -2689 c 0,20,21
1372 -1434 m 0,38,39
 1372 -1363 1372 -1363 1424.5 -1311.5 c 128,-1,40
 1477 -1260 1477 -1260 1546 -1260 c 0,41,42
 1617 -1260 1617 -1260 1668.5 -1311.5 c 128,-1,43
 1720 -1363 1720 -1363 1720 -1434 c 0,44,45
 1720 -1504 1720 -1504 1669 -1556 c 128,-1,46
 1618 -1608 1618 -1608 1546 -1608 c 0,47,48
 1476 -1608 1476 -1608 1424 -1556 c 128,-1,49
 1372 -1504 1372 -1504 1372 -1434 c 0,38,39
EndSplineSet
EndChar

StartChar: summationdisplay
Encoding: 88 88 51
Width: 2957
Flags: W
LayerCount: 2
Fore
SplineSet
135 -2867 m 2,0,1
 115 -2867 115 -2867 115 -2845 c 0,2,3
 115 -2836 115 -2836 121 -2830 c 2,4,-1
 1202 -1571 l 1,5,-1
 121 -90 l 1,6,7
 115 -84 115 -84 115 -80 c 2,8,-1
 115 -18 l 2,9,10
 115 -11 115 -11 121.5 -5.5 c 128,-1,11
 128 0 128 0 135 0 c 2,12,-1
 2593 0 l 1,13,-1
 2841 -575 l 1,14,-1
 2781 -575 l 1,15,16
 2686 -357 2686 -357 2463 -252 c 128,-1,17
 2240 -147 2240 -147 1997.5 -122.5 c 128,-1,18
 1755 -98 1755 -98 1434 -98 c 2,19,-1
 487 -98 l 1,20,-1
 1454 -1419 l 1,21,22
 1458 -1427 1458 -1427 1458 -1434 c 0,23,24
 1458 -1440 1458 -1440 1454 -1448 c 1,25,-1
 391 -2685 l 1,26,-1
 1454 -2685 l 2,27,28
 1769 -2685 1769 -2685 2012.5 -2660.5 c 128,-1,29
 2256 -2636 2256 -2636 2476.5 -2530.5 c 128,-1,30
 2697 -2425 2697 -2425 2781 -2208 c 1,31,-1
 2841 -2208 l 1,32,-1
 2593 -2867 l 1,33,-1
 135 -2867 l 2,0,1
EndSplineSet
EndChar

StartChar: tildewide
Encoding: 101 101 52
Width: 1137
Flags: W
LayerCount: 2
Fore
SplineSet
35 1239 m 1,0,-1
 0 1280 l 1,1,-1
 72 1339 l 1,2,3
 241 1479 241 1479 375 1479 c 0,4,5
 445 1479 445 1479 516 1444 c 128,-1,6
 587 1409 587 1409 658 1374 c 128,-1,7
 729 1339 729 1339 799 1339 c 0,8,9
 933 1339 933 1339 1102 1479 c 1,10,-1
 1137 1438 l 1,11,-1
 1065 1378 l 1,12,13
 895 1239 895 1239 762 1239 c 0,14,15
 692 1239 692 1239 621 1274 c 128,-1,16
 550 1309 550 1309 479 1343.5 c 128,-1,17
 408 1378 408 1378 338 1378 c 0,18,19
 205 1378 205 1378 35 1239 c 1,0,-1
EndSplineSet
EndChar

StartChar: radicalbigg
Encoding: 114 114 53
Width: 2048
Flags: W
LayerCount: 2
Fore
SplineSet
868 -4833 m 1,0,-1
 401 -2658 l 1,1,-1
 262 -2875 l 1,2,-1
 225 -2839 l 1,3,-1
 518 -2376 l 1,4,-1
 956 -4413 l 1,5,-1
 2009 51 l 2,6,7
 2016 82 2016 82 2048 82 c 0,8,9
 2065 82 2065 82 2077 70 c 128,-1,10
 2089 58 2089 58 2089 41 c 2,11,-1
 2089 33 l 1,12,-1
 950 -4803 l 1,13,14
 941 -4833 941 -4833 913 -4833 c 2,15,-1
 868 -4833 l 1,0,-1
EndSplineSet
EndChar

StartChar: arrowdblbt
Encoding: 196 196 54
Width: 1591
Flags: W
LayerCount: 2
Fore
SplineSet
526 -748 m 1,0,-1
 526 0 l 1,1,-1
 614 0 l 1,2,-1
 614 -829 l 1,3,4
 718 -936 718 -936 797 -1059 c 1,5,6
 874 -937 874 -937 979 -829 c 1,7,-1
 979 0 l 1,8,-1
 1067 0 l 1,9,-1
 1067 -748 l 1,10,11
 1246 -592 1246 -592 1479 -502 c 1,12,-1
 1479 -590 l 1,13,14
 1367 -632 1367 -632 1264 -697 c 128,-1,15
 1161 -762 1161 -762 1073.5 -844 c 128,-1,16
 986 -926 986 -926 917.5 -1022 c 128,-1,17
 849 -1118 849 -1118 797 -1229 c 1,18,19
 732 -1085 732 -1085 628.5 -960 c 128,-1,20
 525 -835 525 -835 394.5 -741 c 128,-1,21
 264 -647 264 -647 115 -590 c 1,22,-1
 115 -502 l 1,23,24
 350 -594 350 -594 526 -748 c 1,0,-1
EndSplineSet
EndChar

StartChar: circleplusdisplay
Encoding: 77 77 55
Width: 3095
Flags: W
LayerCount: 2
Fore
SplineSet
1542 -2867 m 2,0,1
 1158 -2867 1158 -2867 829.5 -2674 c 128,-1,2
 501 -2481 501 -2481 308 -2151 c 128,-1,3
 115 -1821 115 -1821 115 -1440 c 2,4,-1
 115 -1430 l 2,5,6
 115 -1047 115 -1047 308 -717 c 128,-1,7
 501 -387 501 -387 829.5 -193.5 c 128,-1,8
 1158 0 1158 0 1542 0 c 2,9,-1
 1552 0 l 2,10,11
 1937 0 1937 0 2265 -193.5 c 128,-1,12
 2593 -387 2593 -387 2785.5 -717 c 128,-1,13
 2978 -1047 2978 -1047 2978 -1430 c 2,14,-1
 2978 -1440 l 2,15,16
 2978 -1821 2978 -1821 2785.5 -2151 c 128,-1,17
 2593 -2481 2593 -2481 2265 -2674 c 128,-1,18
 1937 -2867 1937 -2867 1552 -2867 c 2,19,-1
 1542 -2867 l 2,0,1
662 -2324 m 1,20,21
 758 -2418 758 -2418 870.5 -2489.5 c 128,-1,22
 983 -2561 983 -2561 1108 -2609 c 1,23,24
 1189 -2639 1189 -2639 1288 -2662 c 128,-1,25
 1387 -2685 1387 -2685 1458 -2685 c 1,26,-1
 1458 -1524 l 1,27,-1
 297 -1524 l 1,28,29
 297 -1634 297 -1634 340.5 -1776.5 c 128,-1,30
 384 -1919 384 -1919 446 -2038 c 1,31,32
 537 -2196 537 -2196 662 -2324 c 1,20,21
1636 -2685 m 1,33,34
 1686 -2685 1686 -2685 1750 -2673.5 c 128,-1,35
 1814 -2662 1814 -2662 1869.5 -2647 c 128,-1,36
 1925 -2632 1925 -2632 1987 -2609 c 0,37,38
 2239 -2514 2239 -2514 2433 -2320 c 0,39,40
 2496 -2257 2496 -2257 2550 -2184.5 c 128,-1,41
 2604 -2112 2604 -2112 2644 -2038 c 0,42,43
 2705 -1927 2705 -1927 2750.5 -1781 c 128,-1,44
 2796 -1635 2796 -1635 2796 -1524 c 1,45,-1
 1636 -1524 l 1,46,-1
 1636 -2685 l 1,33,34
297 -1346 m 1,47,-1
 1458 -1346 l 1,48,-1
 1458 -182 l 1,49,50
 1388 -182 1388 -182 1287.5 -204.5 c 128,-1,51
 1187 -227 1187 -227 1106 -258 c 0,52,53
 851 -355 851 -355 659 -547 c 0,54,55
 620 -586 620 -586 579.5 -635 c 128,-1,56
 539 -684 539 -684 508.5 -729.5 c 128,-1,57
 478 -775 478 -775 449 -829 c 0,58,59
 410 -899 410 -899 375 -992 c 128,-1,60
 340 -1085 340 -1085 318.5 -1179 c 128,-1,61
 297 -1273 297 -1273 297 -1346 c 1,47,-1
1636 -1346 m 1,62,-1
 2796 -1346 l 1,63,64
 2796 -1269 2796 -1269 2775 -1177.5 c 128,-1,65
 2754 -1086 2754 -1086 2717 -989 c 128,-1,66
 2680 -892 2680 -892 2646 -829 c 1,67,68
 2557 -672 2557 -672 2431 -543 c 1,69,70
 2243 -358 2243 -358 1985 -258 c 0,71,72
 1905 -227 1905 -227 1805.5 -204.5 c 128,-1,73
 1706 -182 1706 -182 1636 -182 c 1,74,-1
 1636 -1346 l 1,62,-1
EndSplineSet
EndChar

StartChar: integraldisplay
Encoding: 90 90 56
Width: 1137
Flags: W
LayerCount: 2
Fore
SplineSet
217 -4446 m 1,0,1
 268 -4497 268 -4497 342 -4497 c 256,2,3
 416 -4497 416 -4497 477 -4395.5 c 128,-1,4
 538 -4294 538 -4294 584 -4142 c 128,-1,5
 630 -3990 630 -3990 651.5 -3887.5 c 128,-1,6
 673 -3785 673 -3785 705 -3623 c 0,7,8
 734 -3472 734 -3472 761 -3320 c 128,-1,9
 788 -3168 788 -3168 816.5 -2996.5 c 128,-1,10
 845 -2825 845 -2825 876.5 -2648.5 c 128,-1,11
 908 -2472 908 -2472 948 -2273 c 0,12,13
 1002 -2011 1002 -2011 1025.5 -1898.5 c 128,-1,14
 1049 -1786 1049 -1786 1097 -1573.5 c 128,-1,15
 1145 -1361 1145 -1361 1160.5 -1293.5 c 128,-1,16
 1176 -1226 1176 -1226 1249 -924 c 1,17,-1
 1276 -817 l 2,18,19
 1322 -637 1322 -637 1347 -544.5 c 128,-1,20
 1372 -452 1372 -452 1424.5 -318.5 c 128,-1,21
 1477 -185 1477 -185 1548 -92.5 c 128,-1,22
 1619 0 1619 0 1704 0 c 0,23,24
 1764 0 1764 0 1815.5 -27 c 128,-1,25
 1867 -54 1867 -54 1899 -101 c 128,-1,26
 1931 -148 1931 -148 1931 -209 c 0,27,28
 1931 -253 1931 -253 1902 -282 c 128,-1,29
 1873 -311 1873 -311 1829 -311 c 0,30,31
 1784 -311 1784 -311 1754 -282 c 128,-1,32
 1724 -253 1724 -253 1724 -209 c 0,33,34
 1724 -164 1724 -164 1754 -134 c 128,-1,35
 1784 -104 1784 -104 1829 -104 c 1,36,37
 1776 -53 1776 -53 1706 -53 c 0,38,39
 1668 -53 1668 -53 1622.5 -164 c 128,-1,40
 1577 -275 1577 -275 1538.5 -425.5 c 128,-1,41
 1500 -576 1500 -576 1479.5 -676.5 c 128,-1,42
 1459 -777 1459 -777 1430 -928 c 1,43,44
 1396 -1099 1396 -1099 1373.5 -1226 c 128,-1,45
 1351 -1353 1351 -1353 1319 -1540 c 128,-1,46
 1287 -1727 1287 -1727 1256.5 -1896 c 128,-1,47
 1226 -2065 1226 -2065 1184 -2277 c 0,48,49
 1157 -2411 1157 -2411 1106 -2653.5 c 128,-1,50
 1055 -2896 1055 -2896 1038.5 -2969 c 128,-1,51
 1022 -3042 1022 -3042 954.5 -3326 c 128,-1,52
 887 -3610 887 -3610 883 -3627 c 2,53,-1
 858 -3721 l 1,54,55
 805 -3938 805 -3938 751.5 -4102.5 c 128,-1,56
 698 -4267 698 -4267 594.5 -4409 c 128,-1,57
 491 -4551 491 -4551 342 -4551 c 0,58,59
 253 -4551 253 -4551 184 -4491 c 128,-1,60
 115 -4431 115 -4431 115 -4344 c 0,61,62
 115 -4299 115 -4299 145 -4269 c 128,-1,63
 175 -4239 175 -4239 219 -4239 c 0,64,65
 248 -4239 248 -4239 271.5 -4253 c 128,-1,66
 295 -4267 295 -4267 308.5 -4291 c 128,-1,67
 322 -4315 322 -4315 322 -4344 c 0,68,69
 322 -4388 322 -4388 292 -4417 c 128,-1,70
 262 -4446 262 -4446 217 -4446 c 1,0,1
EndSplineSet
EndChar

StartChar: tildewidest
Encoding: 103 103 57
Width: 2957
Flags: W
LayerCount: 2
Fore
SplineSet
16 1268 m 1,0,-1
 0 1319 l 1,1,-1
 86 1348 l 2,2,3
 277 1413 277 1413 449.5 1456 c 128,-1,4
 622 1499 622 1499 756 1517.5 c 128,-1,5
 890 1536 890 1536 1004 1536 c 0,6,7
 1179 1536 1179 1536 1346 1489 c 128,-1,8
 1513 1442 1513 1442 1679.5 1395 c 128,-1,9
 1846 1348 1846 1348 2021 1348 c 0,10,11
 2134 1348 2134 1348 2268.5 1366.5 c 128,-1,12
 2403 1385 2403 1385 2574.5 1428 c 128,-1,13
 2746 1471 2746 1471 2939 1536 c 1,14,-1
 2955 1485 l 1,15,-1
 2869 1456 l 2,16,17
 2678 1391 2678 1391 2505.5 1348 c 128,-1,18
 2333 1305 2333 1305 2199 1286.5 c 128,-1,19
 2065 1268 2065 1268 1952 1268 c 0,20,21
 1775 1268 1775 1268 1609 1315 c 128,-1,22
 1443 1362 1443 1362 1277 1409 c 128,-1,23
 1111 1456 1111 1456 934 1456 c 0,24,25
 850 1456 850 1456 755 1446.5 c 128,-1,26
 660 1437 660 1437 548.5 1415.5 c 128,-1,27
 437 1394 437 1394 298.5 1355.5 c 128,-1,28
 160 1317 160 1317 16 1268 c 1,0,-1
EndSplineSet
EndChar

StartChar: radicalbt
Encoding: 116 116 58
Width: 2161
Flags: W
LayerCount: 2
Fore
SplineSet
1438 -3686 m 1,0,-1
 434 -645 l 1,1,-1
 264 -983 l 1,2,-1
 227 -944 l 1,3,-1
 520 -365 l 1,4,-1
 1438 -3146 l 1,5,-1
 1438 4 l 2,6,7
 1438 20 1438 20 1450 30.5 c 128,-1,8
 1462 41 1462 41 1479 41 c 0,9,10
 1494 41 1494 41 1507 30.5 c 128,-1,11
 1520 20 1520 20 1520 4 c 2,12,-1
 1520 -3647 l 2,13,14
 1520 -3674 1520 -3674 1481 -3686 c 1,15,-1
 1438 -3686 l 1,0,-1
EndSplineSet
EndChar

StartChar: circlemultiplydisplay
Encoding: 79 79 59
Width: 3095
Flags: W
LayerCount: 2
Fore
SplineSet
1542 -2867 m 2,0,1
 1158 -2867 1158 -2867 829.5 -2674 c 128,-1,2
 501 -2481 501 -2481 308 -2151 c 128,-1,3
 115 -1821 115 -1821 115 -1440 c 2,4,-1
 115 -1430 l 2,5,6
 115 -1047 115 -1047 308 -717 c 128,-1,7
 501 -387 501 -387 829.5 -193.5 c 128,-1,8
 1158 0 1158 0 1542 0 c 2,9,-1
 1552 0 l 2,10,11
 1937 0 1937 0 2265 -193.5 c 128,-1,12
 2593 -387 2593 -387 2785.5 -717 c 128,-1,13
 2978 -1047 2978 -1047 2978 -1430 c 2,14,-1
 2978 -1440 l 2,15,16
 2978 -1821 2978 -1821 2785.5 -2151 c 128,-1,17
 2593 -2481 2593 -2481 2265 -2674 c 128,-1,18
 1937 -2867 1937 -2867 1552 -2867 c 2,19,-1
 1542 -2867 l 2,0,1
725 -2382 m 1,20,21
 813 -2458 813 -2458 908.5 -2514.5 c 128,-1,22
 1004 -2571 1004 -2571 1110 -2610 c 128,-1,23
 1216 -2649 1216 -2649 1324.5 -2669 c 128,-1,24
 1433 -2689 1433 -2689 1546 -2689 c 256,25,26
 1659 -2689 1659 -2689 1768.5 -2669 c 128,-1,27
 1878 -2649 1878 -2649 1985 -2609 c 128,-1,28
 2092 -2569 2092 -2569 2187.5 -2512 c 128,-1,29
 2283 -2455 2283 -2455 2367 -2382 c 1,30,-1
 1546 -1561 l 1,31,-1
 725 -2382 l 1,20,21
600 -2257 m 1,32,-1
 1421 -1434 l 1,33,-1
 600 -610 l 1,34,35
 525 -697 525 -697 469 -792 c 128,-1,36
 413 -887 413 -887 373 -995 c 128,-1,37
 333 -1103 333 -1103 313 -1211.5 c 128,-1,38
 293 -1320 293 -1320 293 -1434 c 0,39,40
 293 -1583 293 -1583 329 -1730.5 c 128,-1,41
 365 -1878 365 -1878 434 -2011.5 c 128,-1,42
 503 -2145 503 -2145 600 -2257 c 1,32,-1
2492 -2257 m 1,43,44
 2567 -2172 2567 -2172 2623.5 -2076 c 128,-1,45
 2680 -1980 2680 -1980 2719.5 -1873.5 c 128,-1,46
 2759 -1767 2759 -1767 2779.5 -1655.5 c 128,-1,47
 2800 -1544 2800 -1544 2800 -1434 c 0,48,49
 2800 -1285 2800 -1285 2764.5 -1139 c 128,-1,50
 2729 -993 2729 -993 2659 -858.5 c 128,-1,51
 2589 -724 2589 -724 2492 -610 c 1,52,-1
 1671 -1434 l 1,53,-1
 2492 -2257 l 1,43,44
1546 -1307 m 1,54,-1
 2367 -485 l 1,55,56
 2283 -412 2283 -412 2187.5 -355 c 128,-1,57
 2092 -298 2092 -298 1986.5 -258.5 c 128,-1,58
 1881 -219 1881 -219 1769 -198.5 c 128,-1,59
 1657 -178 1657 -178 1546 -178 c 0,60,61
 1323 -178 1323 -178 1109.5 -257.5 c 128,-1,62
 896 -337 896 -337 725 -485 c 1,63,-1
 1546 -1307 l 1,54,-1
EndSplineSet
EndChar

StartChar: intersectiondisplay
Encoding: 92 92 60
Width: 2275
Flags: W
LayerCount: 2
Fore
SplineSet
115 -2783 m 1,0,-1
 115 -981 l 2,1,2
 115 -780 115 -780 195.5 -600.5 c 128,-1,3
 276 -421 276 -421 420.5 -284.5 c 128,-1,4
 565 -148 565 -148 749.5 -74 c 128,-1,5
 934 0 934 0 1133 0 c 2,6,-1
 1143 0 l 2,7,8
 1341 0 1341 0 1526.5 -74.5 c 128,-1,9
 1712 -149 1712 -149 1854.5 -284 c 128,-1,10
 1997 -419 1997 -419 2078 -599.5 c 128,-1,11
 2159 -780 2159 -780 2159 -981 c 2,12,-1
 2159 -2783 l 1,13,14
 2148 -2858 2148 -2858 2075 -2867 c 1,15,-1
 2064 -2867 l 1,16,17
 1991 -2858 1991 -2858 1980 -2783 c 1,18,-1
 1980 -991 l 2,19,20
 1980 -819 1980 -819 1913 -670.5 c 128,-1,21
 1846 -522 1846 -522 1728.5 -411 c 128,-1,22
 1611 -300 1611 -300 1457.5 -239 c 128,-1,23
 1304 -178 1304 -178 1137 -178 c 0,24,25
 971 -178 971 -178 817 -239 c 128,-1,26
 663 -300 663 -300 545 -411 c 128,-1,27
 427 -522 427 -522 360 -672.5 c 128,-1,28
 293 -823 293 -823 293 -991 c 2,29,-1
 293 -2783 l 1,30,31
 283 -2857 283 -2857 209 -2867 c 1,32,-1
 199 -2867 l 1,33,34
 125 -2857 125 -2857 115 -2783 c 1,0,-1
EndSplineSet
EndChar

StartChar: bracketrightBig
Encoding: 105 105 61
Width: 967
Flags: W
LayerCount: 2
Fore
SplineSet
37 -3602 m 1,0,-1
 37 -3504 l 1,1,-1
 403 -3504 l 1,2,-1
 403 -16 l 1,3,-1
 37 -16 l 1,4,-1
 37 82 l 1,5,-1
 502 82 l 1,6,-1
 502 -3602 l 1,7,-1
 37 -3602 l 1,0,-1
EndSplineSet
EndChar

StartChar: radicaltp
Encoding: 118 118 62
Width: 2161
Flags: W
LayerCount: 2
Fore
SplineSet
1438 -1151 m 2,0,-1
 1438 45 l 2,1,2
 1438 58 1438 58 1450 70 c 128,-1,3
 1462 82 1462 82 1477 82 c 2,4,-1
 2167 82 l 2,5,6
 2182 82 2182 82 2193 69 c 128,-1,7
 2204 56 2204 56 2204 41 c 0,8,9
 2204 24 2204 24 2193 12 c 128,-1,10
 2182 0 2182 0 2167 0 c 2,11,-1
 1520 0 l 1,12,-1
 1520 -1151 l 2,13,14
 1520 -1166 1520 -1166 1507 -1177 c 128,-1,15
 1494 -1188 1494 -1188 1479 -1188 c 0,16,17
 1462 -1188 1462 -1188 1450 -1177 c 128,-1,18
 1438 -1166 1438 -1166 1438 -1151 c 2,0,-1
EndSplineSet
EndChar

StartChar: angbracketleftBig
Encoding: 68 68 63
Width: 1251
Flags: W
LayerCount: 2
Fore
SplineSet
977 -3578 m 2,0,-1
 231 -1778 l 1,1,2
 231 -1774 231 -1774 230.5 -1771.5 c 128,-1,3
 230 -1769 230 -1769 229 -1767 c 1,4,-1
 229 -1757 l 1,5,6
 230 -1754 230 -1754 230.5 -1751.5 c 128,-1,7
 231 -1749 231 -1749 231 -1747 c 2,8,-1
 973 49 l 1,9,10
 985 82 985 82 1016 82 c 2,11,-1
 1026 82 l 1,12,13
 1062 76 1062 76 1069 39 c 1,14,-1
 1069 29 l 2,15,16
 1069 25 1069 25 1068.5 22.5 c 128,-1,17
 1068 20 1068 20 1067 18 c 2,18,-1
 332 -1761 l 1,19,-1
 1067 -3541 l 1,20,21
 1069 -3541 1069 -3541 1069 -3551 c 2,22,-1
 1069 -3561 l 1,23,24
 1063 -3598 1063 -3598 1026 -3604 c 1,25,-1
 1016 -3604 l 2,26,27
 1003 -3604 1003 -3604 991.5 -3595.5 c 128,-1,28
 980 -3587 980 -3587 977 -3578 c 2,0,-1
EndSplineSet
EndChar

StartChar: angbracketrightbig
Encoding: 174 174 64
Width: 967
Flags: W
LayerCount: 2
Fore
SplineSet
160 -2335 m 0,0,1
 160 -2324 160 -2324 164 -2320 c 1,2,-1
 678 -1147 l 1,3,-1
 164 27 l 1,4,5
 160 31 160 31 160 41 c 0,6,7
 160 56 160 56 172 69 c 128,-1,8
 184 82 184 82 201 82 c 0,9,10
 225 82 225 82 240 57 c 1,11,-1
 762 -1133 l 2,12,13
 764 -1137 764 -1137 764 -1147 c 256,14,15
 764 -1157 764 -1157 762 -1163 c 2,16,-1
 240 -2351 l 1,17,18
 224 -2376 224 -2376 201 -2376 c 0,19,20
 184 -2376 184 -2376 172 -2363 c 128,-1,21
 160 -2350 160 -2350 160 -2335 c 0,0,1
EndSplineSet
EndChar

StartChar: ceilingleftbigg
Encoding: 187 187 65
Width: 1194
Flags: W
LayerCount: 2
Fore
SplineSet
510 -4831 m 1,0,-1
 510 82 l 1,1,-1
 1165 82 l 1,2,-1
 1165 -35 l 1,3,-1
 627 -35 l 1,4,-1
 627 -4831 l 1,5,-1
 510 -4831 l 1,0,-1
EndSplineSet
EndChar

StartChar: floorrightBigg
Encoding: 37 37 66
Width: 1307
Flags: W
LayerCount: 2
Fore
SplineSet
18 -6060 m 1,0,-1
 18 -5927 l 1,1,-1
 614 -5927 l 1,2,-1
 614 82 l 1,3,-1
 748 82 l 1,4,-1
 748 -6060 l 1,5,-1
 18 -6060 l 1,0,-1
EndSplineSet
EndChar

StartChar: parenlefttp
Encoding: 48 48 67
Width: 1792
Flags: W
LayerCount: 2
Fore
SplineSet
614 -3625 m 2,0,1
 596 -3625 596 -3625 596 -3602 c 0,2,3
 596 -3074 596 -3074 641.5 -2589.5 c 128,-1,4
 687 -2105 687 -2105 800 -1635.5 c 128,-1,5
 913 -1166 913 -1166 1117.5 -730 c 128,-1,6
 1322 -294 1322 -294 1632 74 c 1,7,8
 1644 80 1644 80 1647 80 c 2,9,-1
 1710 80 l 2,10,11
 1716 80 1716 80 1721 73.5 c 128,-1,12
 1726 67 1726 67 1726 61 c 0,13,14
 1726 53 1726 53 1722 49 c 0,15,16
 1445 -329 1445 -329 1267.5 -764 c 128,-1,17
 1090 -1199 1090 -1199 995.5 -1665 c 128,-1,18
 901 -2131 901 -2131 866 -2606.5 c 128,-1,19
 831 -3082 831 -3082 831 -3607 c 0,20,21
 831 -3612 831 -3612 825.5 -3618.5 c 128,-1,22
 820 -3625 820 -3625 815 -3625 c 2,23,-1
 614 -3625 l 2,0,1
EndSplineSet
EndChar

StartChar: parenleftbig
Encoding: 161 161 68
Width: 938
Flags: W
LayerCount: 2
Fore
SplineSet
801 -2370 m 1,0,1
 548 -2158 548 -2158 429.5 -1835 c 128,-1,2
 311 -1512 311 -1512 311 -1147 c 0,3,4
 311 -779 311 -779 429.5 -455.5 c 128,-1,5
 548 -132 548 -132 801 78 c 1,6,7
 801 82 801 82 811 82 c 2,8,-1
 836 82 l 2,9,10
 842 82 842 82 847 75.5 c 128,-1,11
 852 69 852 69 852 63 c 0,12,13
 852 55 852 55 848 51 c 0,14,15
 737 -64 737 -64 661.5 -205 c 128,-1,16
 586 -346 586 -346 542.5 -497.5 c 128,-1,17
 499 -649 499 -649 480 -814 c 128,-1,18
 461 -979 461 -979 461 -1149 c 0,19,20
 461 -1943 461 -1943 848 -2343 c 0,21,22
 852 -2347 852 -2347 852 -2355 c 0,23,24
 852 -2361 852 -2361 846.5 -2367.5 c 128,-1,25
 841 -2374 841 -2374 836 -2374 c 2,26,-1
 811 -2374 l 2,27,28
 801 -2374 801 -2374 801 -2370 c 1,0,1
EndSplineSet
EndChar

StartChar: vextenddouble
Encoding: 176 176 69
Width: 1137
Flags: W
LayerCount: 2
Fore
SplineSet
297 -1231 m 1,0,-1
 297 2 l 1,1,2
 304 45 304 45 342 45 c 0,3,4
 378 45 378 45 385 2 c 1,5,-1
 385 -1231 l 1,6,7
 377 -1274 377 -1274 342 -1274 c 0,8,9
 305 -1274 305 -1274 297 -1231 c 1,0,-1
752 -1231 m 1,10,-1
 752 2 l 1,11,12
 759 45 759 45 797 45 c 0,13,14
 833 45 833 45 840 2 c 1,15,-1
 840 -1231 l 1,16,17
 832 -1274 832 -1274 797 -1274 c 0,18,19
 760 -1274 760 -1274 752 -1231 c 1,10,-1
EndSplineSet
EndChar

StartChar: braceleftbigg
Encoding: 189 189 70
Width: 1536
Flags: W
LayerCount: 2
Fore
SplineSet
858 -4616 m 0,0,1
 776 -4534 776 -4534 727 -4427.5 c 128,-1,2
 678 -4321 678 -4321 678 -4211 c 2,3,-1
 678 -3004 l 2,4,5
 678 -2881 678 -2881 627 -2767.5 c 128,-1,6
 576 -2654 576 -2654 486.5 -2565 c 128,-1,7
 397 -2476 397 -2476 285 -2419 c 0,8,9
 268 -2411 268 -2411 268 -2402 c 2,10,-1
 268 -2349 l 2,11,12
 268 -2339 268 -2339 285 -2331 c 0,13,14
 372 -2286 372 -2286 443 -2224.5 c 128,-1,15
 514 -2163 514 -2163 566 -2089 c 128,-1,16
 618 -2015 618 -2015 648 -1925.5 c 128,-1,17
 678 -1836 678 -1836 678 -1745 c 2,18,-1
 678 -539 l 2,19,20
 678 -428 678 -428 727 -321.5 c 128,-1,21
 776 -215 776 -215 858 -133 c 0,22,23
 920 -71 920 -71 1024.5 -2.5 c 128,-1,24
 1129 66 1129 66 1196 82 c 1,25,-1
 1249 82 l 2,26,27
 1255 82 1255 82 1260.5 77.5 c 128,-1,28
 1266 73 1266 73 1266 66 c 2,29,-1
 1266 12 l 2,30,31
 1266 1 1266 1 1253 -6 c 1,32,33
 1081 -82 1081 -82 968.5 -225 c 128,-1,34
 856 -368 856 -368 856 -543 c 2,35,-1
 856 -1749 l 2,36,37
 856 -1886 856 -1886 791.5 -2009 c 128,-1,38
 727 -2132 727 -2132 621.5 -2223 c 128,-1,39
 516 -2314 516 -2314 385 -2376 c 1,40,41
 484 -2421 484 -2421 567.5 -2483 c 128,-1,42
 651 -2545 651 -2545 715 -2622.5 c 128,-1,43
 779 -2700 779 -2700 817.5 -2797 c 128,-1,44
 856 -2894 856 -2894 856 -3000 c 2,45,-1
 856 -4207 l 2,46,47
 856 -4292 856 -4292 887.5 -4375.5 c 128,-1,48
 919 -4459 919 -4459 973 -4528 c 128,-1,49
 1027 -4597 1027 -4597 1101.5 -4653.5 c 128,-1,50
 1176 -4710 1176 -4710 1253 -4745 c 1,51,52
 1266 -4749 1266 -4749 1266 -4762 c 2,53,-1
 1266 -4815 l 2,54,55
 1266 -4821 1266 -4821 1260.5 -4826 c 128,-1,56
 1255 -4831 1255 -4831 1249 -4831 c 2,57,-1
 1196 -4831 l 1,58,59
 1131 -4815 1131 -4815 1024.5 -4745.5 c 128,-1,60
 918 -4676 918 -4676 858 -4616 c 0,0,1
EndSplineSet
EndChar

StartChar: ceilingrightBigg
Encoding: 39 39 71
Width: 1307
Flags: W
LayerCount: 2
Fore
SplineSet
614 -6060 m 1,0,-1
 614 -51 l 1,1,-1
 18 -51 l 1,2,-1
 18 82 l 1,3,-1
 748 82 l 1,4,-1
 748 -6060 l 1,5,-1
 614 -6060 l 1,0,-1
EndSplineSet
EndChar

StartChar: parenleftbt
Encoding: 64 64 72
Width: 1792
Flags: W
LayerCount: 2
Fore
SplineSet
1632 -3596 m 1,0,1
 1323 -3229 1323 -3229 1118 -2792 c 128,-1,2
 913 -2355 913 -2355 800 -1886 c 128,-1,3
 687 -1417 687 -1417 641.5 -932.5 c 128,-1,4
 596 -448 596 -448 596 80 c 0,5,6
 596 102 596 102 614 102 c 2,7,-1
 815 102 l 2,8,9
 821 102 821 102 826 96.5 c 128,-1,10
 831 91 831 91 831 84 c 0,11,12
 831 -440 831 -440 866 -915.5 c 128,-1,13
 901 -1391 901 -1391 995.5 -1856.5 c 128,-1,14
 1090 -2322 1090 -2322 1267.5 -2757 c 128,-1,15
 1445 -3192 1445 -3192 1722 -3572 c 0,16,17
 1726 -3576 1726 -3576 1726 -3584 c 0,18,19
 1726 -3589 1726 -3589 1720.5 -3595.5 c 128,-1,20
 1715 -3602 1715 -3602 1710 -3602 c 2,21,-1
 1647 -3602 l 2,22,23
 1644 -3602 1644 -3602 1640 -3600 c 128,-1,24
 1636 -3598 1636 -3598 1632 -3596 c 1,0,1
EndSplineSet
EndChar

StartChar: parenrighttp
Encoding: 49 49 73
Width: 1792
Flags: W
LayerCount: 2
Fore
SplineSet
958 -3607 m 0,0,1
 958 -3064 958 -3064 924 -2598.5 c 128,-1,2
 890 -2133 890 -2133 795.5 -1667.5 c 128,-1,3
 701 -1202 701 -1202 523 -765.5 c 128,-1,4
 345 -329 345 -329 68 49 c 1,5,6
 63 54 63 54 63 61 c 0,7,8
 63 80 63 80 82 80 c 2,9,-1
 145 80 l 2,10,11
 152 80 152 80 158 74 c 0,12,13
 468 -294 468 -294 672.5 -730 c 128,-1,14
 877 -1166 877 -1166 990.5 -1637.5 c 128,-1,15
 1104 -2109 1104 -2109 1149 -2589.5 c 128,-1,16
 1194 -3070 1194 -3070 1194 -3602 c 0,17,18
 1194 -3625 1194 -3625 1178 -3625 c 2,19,-1
 977 -3625 l 2,20,21
 958 -3625 958 -3625 958 -3607 c 0,0,1
EndSplineSet
EndChar

StartChar: bracketleftbig
Encoding: 163 163 74
Width: 852
Flags: W
LayerCount: 2
Fore
SplineSet
414 -2374 m 1,0,-1
 414 82 l 1,1,-1
 807 82 l 1,2,-1
 807 0 l 1,3,-1
 496 0 l 1,4,-1
 496 -2292 l 1,5,-1
 807 -2292 l 1,6,-1
 807 -2374 l 1,7,-1
 414 -2374 l 1,0,-1
EndSplineSet
EndChar

StartChar: backslashbig
Encoding: 178 178 75
Width: 1182
Flags: W
LayerCount: 2
Fore
SplineSet
983 -2349 m 1,0,-1
 119 20 l 2,1,2
 115 30 115 30 115 39 c 0,3,4
 115 56 115 56 128 69 c 128,-1,5
 141 82 141 82 160 82 c 0,6,7
 184 82 184 82 199 57 c 1,8,-1
 1063 -2312 l 1,9,10
 1067 -2320 1067 -2320 1067 -2331 c 0,11,12
 1067 -2348 1067 -2348 1054 -2361 c 128,-1,13
 1041 -2374 1041 -2374 1024 -2374 c 0,14,15
 997 -2374 997 -2374 983 -2349 c 1,0,-1
EndSplineSet
EndChar

StartChar: angbracketleftbigg
Encoding: 191 191 76
Width: 1536
Flags: W
LayerCount: 2
Fore
SplineSet
1227 -4796 m 1,0,-1
 262 -2398 l 1,1,2
 256 -2386 256 -2386 256 -2376 c 0,3,4
 256 -2363 256 -2363 260 -2357 c 1,5,-1
 1227 47 l 1,6,7
 1242 79 1242 79 1280 82 c 1,8,9
 1331 76 1331 76 1337 25 c 1,10,11
 1337 12 1337 12 1335 6 c 2,12,-1
 377 -2376 l 1,13,-1
 1333 -4751 l 1,14,15
 1337 -4765 1337 -4765 1337 -4774 c 1,16,17
 1331 -4825 1331 -4825 1280 -4831 c 1,18,19
 1242 -4828 1242 -4828 1227 -4796 c 1,0,-1
EndSplineSet
EndChar

StartChar: bracerightBigg
Encoding: 41 41 77
Width: 1649
Flags: W
LayerCount: 2
Fore
SplineSet
295 -6044 m 2,0,-1
 295 -5984 l 2,1,2
 295 -5974 295 -5974 303 -5970 c 0,3,4
 495 -5864 495 -5864 608 -5680 c 128,-1,5
 721 -5496 721 -5496 721 -5282 c 2,6,-1
 721 -3770 l 2,7,8
 721 -3608 721 -3608 788.5 -3456.5 c 128,-1,9
 856 -3305 856 -3305 973 -3185.5 c 128,-1,10
 1090 -3066 1090 -3066 1237 -2990 c 1,11,12
 1125 -2929 1125 -2929 1032.5 -2847.5 c 128,-1,13
 940 -2766 940 -2766 868.5 -2663 c 128,-1,14
 797 -2560 797 -2560 759 -2446 c 128,-1,15
 721 -2332 721 -2332 721 -2208 c 2,16,-1
 721 -696 l 2,17,18
 721 -482 721 -482 607.5 -297 c 128,-1,19
 494 -112 494 -112 303 -8 c 0,20,21
 295 -4 295 -4 295 6 c 2,22,-1
 295 66 l 2,23,24
 295 82 295 82 313 82 c 2,25,-1
 373 82 l 1,26,27
 410 72 410 72 469 34.5 c 128,-1,28
 528 -3 528 -3 590.5 -52.5 c 128,-1,29
 653 -102 653 -102 682 -131 c 0,30,31
 796 -245 796 -245 862 -390.5 c 128,-1,32
 928 -536 928 -536 928 -692 c 2,33,-1
 928 -2204 l 2,34,35
 928 -2354 928 -2354 978 -2495 c 128,-1,36
 1028 -2636 1028 -2636 1123 -2752.5 c 128,-1,37
 1218 -2869 1218 -2869 1348 -2947 c 1,38,39
 1354 -2953 1354 -2953 1354 -2959 c 2,40,-1
 1354 -3019 l 2,41,42
 1354 -3021 1354 -3021 1348 -3033 c 1,43,44
 1219 -3109 1219 -3109 1123.5 -3225.5 c 128,-1,45
 1028 -3342 1028 -3342 978 -3483 c 128,-1,46
 928 -3624 928 -3624 928 -3774 c 2,47,-1
 928 -5286 l 2,48,49
 928 -5458 928 -5458 855.5 -5606 c 128,-1,50
 783 -5754 783 -5754 656.5 -5869.5 c 128,-1,51
 530 -5985 530 -5985 373 -6060 c 1,52,-1
 313 -6060 l 2,53,54
 295 -6060 295 -6060 295 -6044 c 2,0,-1
EndSplineSet
EndChar

StartChar: bracketleftex
Encoding: 54 54 78
Width: 1364
Flags: W
LayerCount: 2
Fore
SplineSet
664 -1231 m 1,0,-1
 664 2 l 1,1,-1
 813 2 l 1,2,-1
 813 -1231 l 1,3,-1
 664 -1231 l 1,0,-1
EndSplineSet
EndChar

StartChar: parenrightbt
Encoding: 65 65 79
Width: 1792
Flags: W
LayerCount: 2
Fore
SplineSet
82 -3602 m 2,0,1
 63 -3602 63 -3602 63 -3584 c 0,2,3
 63 -3577 63 -3577 68 -3572 c 1,4,5
 345 -3192 345 -3192 523 -2755.5 c 128,-1,6
 701 -2319 701 -2319 795.5 -1854 c 128,-1,7
 890 -1389 890 -1389 924 -923.5 c 128,-1,8
 958 -458 958 -458 958 84 c 0,9,10
 958 91 958 91 963 96.5 c 128,-1,11
 968 102 968 102 977 102 c 2,12,-1
 1178 102 l 2,13,14
 1185 102 1185 102 1189.5 96 c 128,-1,15
 1194 90 1194 90 1194 80 c 0,16,17
 1194 -452 1194 -452 1149 -932.5 c 128,-1,18
 1104 -1413 1104 -1413 990.5 -1884 c 128,-1,19
 877 -2355 877 -2355 672 -2792 c 128,-1,20
 467 -3229 467 -3229 158 -3596 c 0,21,22
 152 -3602 152 -3602 145 -3602 c 2,23,-1
 82 -3602 l 2,0,1
EndSplineSet
EndChar

StartChar: floorleftbig
Encoding: 165 165 80
Width: 967
Flags: W
LayerCount: 2
Fore
SplineSet
414 -2374 m 1,0,-1
 414 82 l 1,1,-1
 496 82 l 1,2,-1
 496 -2292 l 1,3,-1
 920 -2292 l 1,4,-1
 920 -2374 l 1,5,-1
 414 -2374 l 1,0,-1
EndSplineSet
EndChar

StartChar: parenrightBig
Encoding: 180 180 81
Width: 1223
Flags: W
LayerCount: 2
Fore
SplineSet
90 -3602 m 2,0,1
 72 -3602 72 -3602 72 -3584 c 0,2,3
 72 -3576 72 -3576 76 -3572 c 0,4,5
 250 -3398 250 -3398 370 -3185.5 c 128,-1,6
 490 -2973 490 -2973 559 -2741 c 128,-1,7
 628 -2509 628 -2509 658 -2264 c 128,-1,8
 688 -2019 688 -2019 688 -1759 c 0,9,10
 688 -1493 688 -1493 657.5 -1250 c 128,-1,11
 627 -1007 627 -1007 558 -776 c 128,-1,12
 489 -545 489 -545 369.5 -332.5 c 128,-1,13
 250 -120 250 -120 76 51 c 0,14,15
 72 55 72 55 72 63 c 0,16,17
 72 82 72 82 90 82 c 2,18,-1
 137 82 l 2,19,20
 143 82 143 82 147 78 c 0,21,22
 336 -85 336 -85 473 -298.5 c 128,-1,23
 610 -512 610 -512 693.5 -751.5 c 128,-1,24
 777 -991 777 -991 814.5 -1244 c 128,-1,25
 852 -1497 852 -1497 852 -1761 c 0,26,27
 852 -2024 852 -2024 814.5 -2276.5 c 128,-1,28
 777 -2529 777 -2529 693.5 -2769 c 128,-1,29
 610 -3009 610 -3009 473 -3222 c 128,-1,30
 336 -3435 336 -3435 147 -3598 c 0,31,32
 143 -3602 143 -3602 137 -3602 c 2,33,-1
 90 -3602 l 2,0,1
EndSplineSet
EndChar

StartChar: slashbigg
Encoding: 193 193 82
Width: 2138
Flags: W
LayerCount: 2
Fore
SplineSet
115 -4776 m 0,0,1
 115 -4769 115 -4769 119 -4755 c 1,2,-1
 1915 47 l 1,3,4
 1932 82 1932 82 1966 82 c 0,5,6
 1989 82 1989 82 2005 66 c 128,-1,7
 2021 50 2021 50 2021 27 c 0,8,9
 2021 18 2021 18 2017 6 c 2,10,-1
 221 -4796 l 1,11,12
 204 -4831 204 -4831 170 -4831 c 0,13,14
 147 -4831 147 -4831 131 -4815 c 128,-1,15
 115 -4799 115 -4799 115 -4776 c 0,0,1
EndSplineSet
EndChar

StartChar: angbracketrightBigg
Encoding: 43 43 83
Width: 1649
Flags: W
LayerCount: 2
Fore
SplineSet
217 -5994 m 0,0,1
 217 -5984 217 -5984 221 -5972 c 2,2,-1
 1227 -2990 l 1,3,-1
 221 -8 l 1,4,5
 217 8 217 8 217 16 c 0,6,7
 217 42 217 42 238 62 c 128,-1,8
 259 82 259 82 285 82 c 0,9,10
 324 82 324 82 346 39 c 1,11,-1
 1360 -2968 l 2,12,13
 1364 -2980 1364 -2980 1364 -2990 c 0,14,15
 1364 -2995 1364 -2995 1360 -3013 c 1,16,-1
 346 -6017 l 1,17,18
 329 -6060 329 -6060 285 -6060 c 0,19,20
 259 -6060 259 -6060 238 -6040 c 128,-1,21
 217 -6020 217 -6020 217 -5994 c 0,0,1
EndSplineSet
EndChar

StartChar: bracelefttp
Encoding: 56 56 84
Width: 1819
Flags: W
LayerCount: 2
Fore
SplineSet
786 -1845 m 2,0,-1
 786 -930 l 2,1,2
 786 -739 786 -739 861.5 -560.5 c 128,-1,3
 937 -382 937 -382 1072 -239 c 128,-1,4
 1207 -96 1207 -96 1380 -6 c 1,5,6
 1384 -2 1384 -2 1391 -2 c 2,7,-1
 1454 -2 l 2,8,9
 1460 -2 1460 -2 1465 -7 c 128,-1,10
 1470 -12 1470 -12 1470 -20 c 2,11,-1
 1470 -84 l 2,12,13
 1470 -90 1470 -90 1464 -96 c 1,14,15
 1361 -162 1361 -162 1279.5 -255.5 c 128,-1,16
 1198 -349 1198 -349 1144 -456.5 c 128,-1,17
 1090 -564 1090 -564 1061 -688.5 c 128,-1,18
 1032 -813 1032 -813 1032 -934 c 2,19,-1
 1032 -1845 l 2,20,21
 1032 -1851 1032 -1851 1026.5 -1857.5 c 128,-1,22
 1021 -1864 1021 -1864 1016 -1864 c 2,23,-1
 805 -1864 l 2,24,25
 798 -1864 798 -1864 792 -1858 c 128,-1,26
 786 -1852 786 -1852 786 -1845 c 2,0,-1
EndSplineSet
EndChar

StartChar: bracketrightex
Encoding: 55 55 85
Width: 1364
Flags: W
LayerCount: 2
Fore
SplineSet
551 -1231 m 1,0,-1
 551 2 l 1,1,-1
 700 2 l 1,2,-1
 700 -1231 l 1,3,-1
 551 -1231 l 1,0,-1
EndSplineSet
EndChar

StartChar: ceilingleftbig
Encoding: 167 167 86
Width: 967
Flags: W
LayerCount: 2
Fore
SplineSet
414 -2374 m 1,0,-1
 414 82 l 1,1,-1
 920 82 l 1,2,-1
 920 0 l 1,3,-1
 496 0 l 1,4,-1
 496 -2374 l 1,5,-1
 414 -2374 l 1,0,-1
EndSplineSet
EndChar

StartChar: parenrightbigg
Encoding: 182 182 87
Width: 1507
Flags: W
LayerCount: 2
Fore
SplineSet
88 -4831 m 2,0,1
 70 -4831 70 -4831 70 -4813 c 0,2,3
 70 -4805 70 -4805 74 -4801 c 0,4,5
 308 -4570 308 -4570 469 -4286.5 c 128,-1,6
 630 -4003 630 -4003 725 -3690.5 c 128,-1,7
 820 -3378 820 -3378 860.5 -3051.5 c 128,-1,8
 901 -2725 901 -2725 901 -2374 c 0,9,10
 901 -2019 901 -2019 860.5 -1695 c 128,-1,11
 820 -1371 820 -1371 726 -1060 c 128,-1,12
 632 -749 632 -749 469 -463.5 c 128,-1,13
 306 -178 306 -178 74 51 c 0,14,15
 70 55 70 55 70 63 c 0,16,17
 70 82 70 82 88 82 c 2,18,-1
 141 82 l 2,19,20
 148 82 148 82 152 78 c 0,21,22
 405 -146 405 -146 585 -431.5 c 128,-1,23
 765 -717 765 -717 873 -1034 c 128,-1,24
 981 -1351 981 -1351 1030 -1689 c 128,-1,25
 1079 -2027 1079 -2027 1079 -2376 c 0,26,27
 1079 -2723 1079 -2723 1030 -3060 c 128,-1,28
 981 -3397 981 -3397 873 -3714.5 c 128,-1,29
 765 -4032 765 -4032 585 -4317.5 c 128,-1,30
 405 -4603 405 -4603 152 -4827 c 0,31,32
 148 -4831 148 -4831 141 -4831 c 2,33,-1
 88 -4831 l 2,0,1
EndSplineSet
EndChar

StartChar: parenleftBigg
Encoding: 195 195 88
Width: 1620
Flags: W
LayerCount: 2
Fore
SplineSet
1462 -6054 m 1,0,1
 1179 -5756 1179 -5756 988 -5397 c 128,-1,2
 797 -5038 797 -5038 687 -4643.5 c 128,-1,3
 577 -4249 577 -4249 530 -3835 c 128,-1,4
 483 -3421 483 -3421 483 -2990 c 0,5,6
 483 -2557 483 -2557 530 -2142.5 c 128,-1,7
 577 -1728 577 -1728 687 -1333.5 c 128,-1,8
 797 -939 797 -939 988 -579.5 c 128,-1,9
 1179 -220 1179 -220 1462 76 c 1,10,11
 1474 82 1474 82 1477 82 c 2,12,-1
 1536 82 l 2,13,14
 1542 82 1542 82 1547 75.5 c 128,-1,15
 1552 69 1552 69 1552 63 c 0,16,17
 1552 55 1552 55 1548 51 c 0,18,19
 1291 -252 1291 -252 1121.5 -612.5 c 128,-1,20
 952 -973 952 -973 858 -1363.5 c 128,-1,21
 764 -1754 764 -1754 727 -2152 c 128,-1,22
 690 -2550 690 -2550 690 -2990 c 0,23,24
 690 -3428 690 -3428 727 -3825 c 128,-1,25
 764 -4222 764 -4222 858.5 -4614 c 128,-1,26
 953 -5006 953 -5006 1122 -5365 c 128,-1,27
 1291 -5724 1291 -5724 1548 -6029 c 0,28,29
 1552 -6033 1552 -6033 1552 -6042 c 0,30,31
 1552 -6047 1552 -6047 1546.5 -6053.5 c 128,-1,32
 1541 -6060 1541 -6060 1536 -6060 c 2,33,-1
 1477 -6060 l 2,34,35
 1474 -6060 1474 -6060 1470 -6058 c 128,-1,36
 1466 -6056 1466 -6056 1462 -6054 c 1,0,1
EndSplineSet
EndChar

StartChar: backslashBigg
Encoding: 45 45 89
Width: 2615
Flags: W
LayerCount: 2
Fore
SplineSet
2382 -6023 m 1,0,-1
 121 -6 l 2,1,2
 115 9 115 9 115 20 c 0,3,4
 115 45 115 45 133.5 63.5 c 128,-1,5
 152 82 152 82 178 82 c 0,6,7
 213 82 213 82 236 45 c 1,8,-1
 2497 -5974 l 1,9,10
 2501 -5990 2501 -5990 2501 -5999 c 0,11,12
 2501 -6023 2501 -6023 2482.5 -6041.5 c 128,-1,13
 2464 -6060 2464 -6060 2439 -6060 c 0,14,15
 2400 -6060 2400 -6060 2382 -6023 c 1,0,-1
EndSplineSet
EndChar

StartChar: braceleftbt
Encoding: 58 58 90
Width: 1819
Flags: W
LayerCount: 2
Fore
SplineSet
1380 -1837 m 1,0,1
 1250 -1769 1250 -1769 1141 -1670.5 c 128,-1,2
 1032 -1572 1032 -1572 953 -1452.5 c 128,-1,3
 874 -1333 874 -1333 830 -1195 c 128,-1,4
 786 -1057 786 -1057 786 -913 c 2,5,-1
 786 2 l 2,6,7
 786 9 786 9 791 14.5 c 128,-1,8
 796 20 796 20 805 20 c 2,9,-1
 1016 20 l 2,10,11
 1022 20 1022 20 1027 14.5 c 128,-1,12
 1032 9 1032 9 1032 2 c 2,13,-1
 1032 -909 l 2,14,15
 1032 -1161 1032 -1161 1144.5 -1387.5 c 128,-1,16
 1257 -1614 1257 -1614 1464 -1747 c 1,17,18
 1470 -1753 1470 -1753 1470 -1761 c 2,19,-1
 1470 -1825 l 2,20,21
 1470 -1831 1470 -1831 1465 -1836 c 128,-1,22
 1460 -1841 1460 -1841 1454 -1841 c 2,23,-1
 1391 -1841 l 2,24,25
 1384 -1841 1384 -1841 1380 -1837 c 1,0,1
EndSplineSet
EndChar

StartChar: bracerighttp
Encoding: 57 57 91
Width: 1819
Flags: W
LayerCount: 2
Fore
SplineSet
786 -1845 m 2,0,-1
 786 -934 l 2,1,2
 786 -806 786 -806 758 -685.5 c 128,-1,3
 730 -565 730 -565 676 -458 c 128,-1,4
 622 -351 622 -351 540.5 -256 c 128,-1,5
 459 -161 459 -161 356 -96 c 0,6,7
 348 -92 348 -92 348 -84 c 2,8,-1
 348 -20 l 2,9,10
 348 -2 348 -2 367 -2 c 2,11,-1
 430 -2 l 2,12,13
 432 -2 432 -2 440 -6 c 0,14,15
 612 -95 612 -95 746.5 -238.5 c 128,-1,16
 881 -382 881 -382 956.5 -560.5 c 128,-1,17
 1032 -739 1032 -739 1032 -930 c 2,18,-1
 1032 -1845 l 2,19,20
 1032 -1851 1032 -1851 1026.5 -1857.5 c 128,-1,21
 1021 -1864 1021 -1864 1016 -1864 c 2,22,-1
 805 -1864 l 2,23,24
 798 -1864 798 -1864 792 -1858 c 128,-1,25
 786 -1852 786 -1852 786 -1845 c 2,0,-1
EndSplineSet
EndChar

StartChar: braceleftbig
Encoding: 169 169 92
Width: 1194
Flags: W
LayerCount: 2
Fore
SplineSet
522 -2056 m 2,0,-1
 522 -1458 l 2,1,2
 522 -1388 522 -1388 481 -1331 c 128,-1,3
 440 -1274 440 -1274 379 -1237.5 c 128,-1,4
 318 -1201 318 -1201 242 -1176 c 1,5,6
 227 -1168 227 -1168 227 -1159 c 2,7,-1
 227 -1135 l 2,8,9
 227 -1121 227 -1121 242 -1118 c 1,10,11
 361 -1077 361 -1077 441.5 -1008 c 128,-1,12
 522 -939 522 -939 522 -834 c 2,13,-1
 522 -236 l 2,14,15
 522 -104 522 -104 641.5 -30.5 c 128,-1,16
 761 43 761 43 924 82 c 1,17,-1
 948 82 l 2,18,19
 954 82 954 82 959.5 77.5 c 128,-1,20
 965 73 965 73 965 66 c 2,21,-1
 965 41 l 2,22,23
 965 29 965 29 952 25 c 0,24,25
 838 -10 838 -10 755 -74.5 c 128,-1,26
 672 -139 672 -139 672 -240 c 2,27,-1
 672 -838 l 2,28,29
 672 -958 672 -958 577.5 -1028.5 c 128,-1,30
 483 -1099 483 -1099 338 -1147 c 1,31,32
 479 -1189 479 -1189 575.5 -1260.5 c 128,-1,33
 672 -1332 672 -1332 672 -1454 c 2,34,-1
 672 -2052 l 2,35,36
 672 -2121 672 -2121 714 -2173 c 128,-1,37
 756 -2225 756 -2225 818 -2259 c 128,-1,38
 880 -2293 880 -2293 952 -2316 c 0,39,40
 965 -2320 965 -2320 965 -2333 c 2,41,-1
 965 -2357 l 2,42,43
 965 -2363 965 -2363 959.5 -2368.5 c 128,-1,44
 954 -2374 954 -2374 948 -2374 c 2,45,-1
 924 -2374 l 1,46,47
 819 -2348 819 -2348 733.5 -2312.5 c 128,-1,48
 648 -2277 648 -2277 585 -2212.5 c 128,-1,49
 522 -2148 522 -2148 522 -2056 c 2,0,-1
EndSplineSet
EndChar

StartChar: bracketrightbigg
Encoding: 184 184 93
Width: 1079
Flags: W
LayerCount: 2
Fore
SplineSet
27 -4831 m 1,0,-1
 27 -4714 l 1,1,-1
 453 -4714 l 1,2,-1
 453 -35 l 1,3,-1
 27 -35 l 1,4,-1
 27 82 l 1,5,-1
 569 82 l 1,6,-1
 569 -4831 l 1,7,-1
 27 -4831 l 1,0,-1
EndSplineSet
EndChar

StartChar: bracketleftBigg
Encoding: 34 34 94
Width: 1194
Flags: W
LayerCount: 2
Fore
SplineSet
559 -6060 m 1,0,-1
 559 82 l 1,1,-1
 1174 82 l 1,2,-1
 1174 -51 l 1,3,-1
 692 -51 l 1,4,-1
 692 -5927 l 1,5,-1
 1174 -5927 l 1,6,-1
 1174 -6060 l 1,7,-1
 559 -6060 l 1,0,-1
EndSplineSet
EndChar

StartChar: backslashBig
Encoding: 47 47 95
Width: 1661
Flags: W
LayerCount: 2
Fore
SplineSet
1450 -3574 m 1,0,-1
 117 18 l 1,1,-1
 115 27 l 1,2,-1
 115 39 l 1,3,4
 121 72 121 72 158 82 c 1,5,-1
 170 82 l 2,6,7
 197 82 197 82 209 53 c 1,8,-1
 1542 -3539 l 1,9,-1
 1544 -3547 l 1,10,-1
 1544 -3559 l 1,11,12
 1538 -3592 1538 -3592 1501 -3602 c 1,13,-1
 1489 -3602 l 2,14,15
 1462 -3602 1462 -3602 1450 -3574 c 1,0,-1
EndSplineSet
EndChar

StartChar: bracerightbt
Encoding: 59 59 96
Width: 1819
Flags: W
LayerCount: 2
Fore
SplineSet
348 -1825 m 2,0,-1
 348 -1761 l 2,1,2
 348 -1751 348 -1751 356 -1747 c 0,3,4
 492 -1660 492 -1660 590 -1526 c 128,-1,5
 688 -1392 688 -1392 737 -1235 c 128,-1,6
 786 -1078 786 -1078 786 -909 c 2,7,-1
 786 2 l 2,8,9
 786 9 786 9 791 14.5 c 128,-1,10
 796 20 796 20 805 20 c 2,11,-1
 1016 20 l 2,12,13
 1022 20 1022 20 1027 14.5 c 128,-1,14
 1032 9 1032 9 1032 2 c 2,15,-1
 1032 -913 l 2,16,17
 1032 -1060 1032 -1060 988.5 -1197 c 128,-1,18
 945 -1334 945 -1334 866.5 -1452.5 c 128,-1,19
 788 -1571 788 -1571 678 -1670.5 c 128,-1,20
 568 -1770 568 -1770 440 -1837 c 0,21,22
 432 -1841 432 -1841 430 -1841 c 2,23,-1
 367 -1841 l 2,24,25
 348 -1841 348 -1841 348 -1825 c 2,0,-1
EndSplineSet
EndChar

StartChar: angbracketleftbig
Encoding: 173 173 97
Width: 967
Flags: W
LayerCount: 2
Fore
SplineSet
727 -2351 m 2,0,-1
 205 -1163 l 1,1,2
 201 -1157 201 -1157 201 -1147 c 256,3,4
 201 -1137 201 -1137 205 -1133 c 1,5,-1
 727 57 l 2,6,7
 737 82 737 82 764 82 c 0,8,9
 779 82 779 82 792 69 c 128,-1,10
 805 56 805 56 805 41 c 0,11,12
 805 31 805 31 803 27 c 2,13,-1
 287 -1147 l 1,14,-1
 803 -2320 l 2,15,16
 805 -2324 805 -2324 805 -2335 c 0,17,18
 805 -2350 805 -2350 792 -2363 c 128,-1,19
 779 -2376 779 -2376 764 -2376 c 0,20,21
 738 -2376 738 -2376 727 -2351 c 2,0,-1
EndSplineSet
EndChar

StartChar: floorrightbigg
Encoding: 186 186 98
Width: 1194
Flags: W
LayerCount: 2
Fore
SplineSet
27 -4831 m 1,0,-1
 27 -4714 l 1,1,-1
 565 -4714 l 1,2,-1
 565 82 l 1,3,-1
 682 82 l 1,4,-1
 682 -4831 l 1,5,-1
 27 -4831 l 1,0,-1
EndSplineSet
EndChar

StartChar: floorleftBigg
Encoding: 36 36 99
Width: 1307
Flags: W
LayerCount: 2
Fore
SplineSet
559 -6060 m 1,0,-1
 559 82 l 1,1,-1
 692 82 l 1,2,-1
 692 -5927 l 1,3,-1
 1288 -5927 l 1,4,-1
 1288 -6060 l 1,5,-1
 559 -6060 l 1,0,-1
EndSplineSet
EndChar

StartChar: vextendsingle
Encoding: 175 175 101
Width: 682
Flags: W
LayerCount: 2
Fore
SplineSet
297 -1231 m 1,0,-1
 297 2 l 1,1,2
 304 45 304 45 342 45 c 0,3,4
 378 45 378 45 385 2 c 1,5,-1
 385 -1231 l 1,6,7
 377 -1274 377 -1274 342 -1274 c 0,8,9
 305 -1274 305 -1274 297 -1231 c 1,0,-1
EndSplineSet
EndChar

StartChar: ceilingrightbigg
Encoding: 188 188 102
Width: 1194
Flags: W
LayerCount: 2
Fore
SplineSet
565 -4831 m 1,0,-1
 565 -35 l 1,1,-1
 27 -35 l 1,2,-1
 27 82 l 1,3,-1
 682 82 l 1,4,-1
 682 -4831 l 1,5,-1
 565 -4831 l 1,0,-1
EndSplineSet
EndChar

StartChar: ceilingleftBigg
Encoding: 38 38 103
Width: 1307
Flags: W
LayerCount: 2
Fore
SplineSet
559 -6060 m 1,0,-1
 559 82 l 1,1,-1
 1288 82 l 1,2,-1
 1288 -51 l 1,3,-1
 692 -51 l 1,4,-1
 692 -6060 l 1,5,-1
 559 -6060 l 1,0,-1
EndSplineSet
EndChar

StartChar: parenleftex
Encoding: 66 66 104
Width: 1792
Flags: W
LayerCount: 2
Fore
SplineSet
596 -1231 m 2,0,-1
 596 2 l 2,1,2
 596 9 596 9 601.5 14.5 c 128,-1,3
 607 20 607 20 614 20 c 2,4,-1
 815 20 l 2,5,6
 821 20 821 20 826 14.5 c 128,-1,7
 831 9 831 9 831 2 c 2,8,-1
 831 -1231 l 2,9,10
 831 -1236 831 -1236 825.5 -1242.5 c 128,-1,11
 820 -1249 820 -1249 815 -1249 c 2,12,-1
 614 -1249 l 2,13,14
 596 -1249 596 -1249 596 -1231 c 2,0,-1
EndSplineSet
EndChar

StartChar: parenrightbig
Encoding: 162 162 105
Width: 938
Flags: W
LayerCount: 2
Fore
SplineSet
102 -2374 m 2,0,1
 84 -2374 84 -2374 84 -2355 c 0,2,3
 84 -2347 84 -2347 88 -2343 c 0,4,5
 235 -2190 235 -2190 320.5 -1995.5 c 128,-1,6
 406 -1801 406 -1801 440.5 -1587.5 c 128,-1,7
 475 -1374 475 -1374 475 -1145 c 0,8,9
 475 -349 475 -349 88 51 c 0,10,11
 84 55 84 55 84 63 c 0,12,13
 84 82 84 82 102 82 c 2,14,-1
 127 82 l 2,15,16
 133 82 133 82 137 78 c 0,17,18
 389 -132 389 -132 507 -455.5 c 128,-1,19
 625 -779 625 -779 625 -1147 c 0,20,21
 625 -1512 625 -1512 507.5 -1835 c 128,-1,22
 390 -2158 390 -2158 137 -2370 c 0,23,24
 133 -2374 133 -2374 127 -2374 c 2,25,-1
 102 -2374 l 2,0,1
EndSplineSet
EndChar

StartChar: slashbig
Encoding: 177 177 106
Width: 1182
Flags: W
LayerCount: 2
Fore
SplineSet
115 -2331 m 0,0,1
 115 -2320 115 -2320 117 -2318 c 1,2,-1
 983 57 l 2,3,4
 987 69 987 69 998.5 75.5 c 128,-1,5
 1010 82 1010 82 1024 82 c 0,6,7
 1041 82 1041 82 1054 69 c 128,-1,8
 1067 56 1067 56 1067 39 c 0,9,10
 1067 29 1067 29 1065 27 c 1,11,-1
 199 -2349 l 2,12,13
 195 -2359 195 -2359 182.5 -2366.5 c 128,-1,14
 170 -2374 170 -2374 160 -2374 c 0,15,16
 141 -2374 141 -2374 128 -2361 c 128,-1,17
 115 -2348 115 -2348 115 -2331 c 0,0,1
EndSplineSet
EndChar

StartChar: bracerightbigg
Encoding: 190 190 107
Width: 1536
Flags: W
LayerCount: 2
Fore
SplineSet
268 -4815 m 2,0,-1
 268 -4762 l 2,1,2
 268 -4748 268 -4748 283 -4745 c 1,3,4
 393 -4695 393 -4695 482.5 -4614 c 128,-1,5
 572 -4533 572 -4533 625 -4429 c 128,-1,6
 678 -4325 678 -4325 678 -4207 c 2,7,-1
 678 -3000 l 2,8,9
 678 -2894 678 -2894 716.5 -2797.5 c 128,-1,10
 755 -2701 755 -2701 819.5 -2622.5 c 128,-1,11
 884 -2544 884 -2544 968.5 -2481.5 c 128,-1,12
 1053 -2419 1053 -2419 1149 -2376 c 1,13,14
 945 -2279 945 -2279 811.5 -2116 c 128,-1,15
 678 -1953 678 -1953 678 -1749 c 2,16,-1
 678 -543 l 2,17,18
 678 -425 678 -425 625 -320.5 c 128,-1,19
 572 -216 572 -216 481.5 -135 c 128,-1,20
 391 -54 391 -54 283 -6 c 0,21,22
 268 1 268 1 268 12 c 2,23,-1
 268 66 l 2,24,25
 268 82 268 82 287 82 c 2,26,-1
 340 82 l 1,27,28
 407 65 407 65 510.5 -3 c 128,-1,29
 614 -71 614 -71 676 -133 c 1,30,31
 733 -192 733 -192 772 -254 c 128,-1,32
 811 -316 811 -316 833.5 -389.5 c 128,-1,33
 856 -463 856 -463 856 -539 c 2,34,-1
 856 -1745 l 2,35,36
 856 -1930 856 -1930 965 -2085 c 128,-1,37
 1074 -2240 1074 -2240 1249 -2331 c 0,38,39
 1266 -2340 1266 -2340 1266 -2349 c 2,40,-1
 1266 -2402 l 2,41,42
 1266 -2410 1266 -2410 1249 -2419 c 0,43,44
 1137 -2476 1137 -2476 1047.5 -2565 c 128,-1,45
 958 -2654 958 -2654 907 -2767.5 c 128,-1,46
 856 -2881 856 -2881 856 -3004 c 2,47,-1
 856 -4211 l 2,48,49
 856 -4287 856 -4287 833.5 -4360 c 128,-1,50
 811 -4433 811 -4433 770.5 -4497.5 c 128,-1,51
 730 -4562 730 -4562 676 -4616 c 0,52,53
 638 -4654 638 -4654 577 -4699.5 c 128,-1,54
 516 -4745 516 -4745 452 -4782 c 128,-1,55
 388 -4819 388 -4819 340 -4831 c 1,56,-1
 287 -4831 l 2,57,58
 268 -4831 268 -4831 268 -4815 c 2,0,-1
EndSplineSet
EndChar

StartChar: braceleftBigg
Encoding: 40 40 108
Width: 1649
Flags: W
LayerCount: 2
Fore
SplineSet
967 -5847 m 1,0,1
 853 -5733 853 -5733 787 -5587.5 c 128,-1,2
 721 -5442 721 -5442 721 -5286 c 2,3,-1
 721 -3774 l 2,4,5
 721 -3624 721 -3624 671 -3483 c 128,-1,6
 621 -3342 621 -3342 525.5 -3225 c 128,-1,7
 430 -3108 430 -3108 303 -3033 c 1,8,9
 295 -3025 295 -3025 295 -3019 c 2,10,-1
 295 -2959 l 2,11,12
 295 -2951 295 -2951 303 -2947 c 0,13,14
 402 -2888 402 -2888 478 -2809 c 128,-1,15
 554 -2730 554 -2730 609.5 -2630 c 128,-1,16
 665 -2530 665 -2530 693 -2422.5 c 128,-1,17
 721 -2315 721 -2315 721 -2204 c 2,18,-1
 721 -692 l 2,19,20
 721 -439 721 -439 874.5 -239 c 128,-1,21
 1028 -39 1028 -39 1276 82 c 1,22,-1
 1337 82 l 2,23,24
 1344 82 1344 82 1349 77 c 128,-1,25
 1354 72 1354 72 1354 66 c 2,26,-1
 1354 6 l 2,27,28
 1354 -2 1354 -2 1348 -8 c 1,29,30
 1254 -59 1254 -59 1176.5 -132.5 c 128,-1,31
 1099 -206 1099 -206 1044 -294.5 c 128,-1,32
 989 -383 989 -383 958.5 -487.5 c 128,-1,33
 928 -592 928 -592 928 -696 c 2,34,-1
 928 -2208 l 2,35,36
 928 -2370 928 -2370 861 -2520.5 c 128,-1,37
 794 -2671 794 -2671 678 -2790.5 c 128,-1,38
 562 -2910 562 -2910 412 -2990 c 1,39,40
 520 -3046 520 -3046 616 -3130 c 128,-1,41
 712 -3214 712 -3214 781.5 -3313.5 c 128,-1,42
 851 -3413 851 -3413 889.5 -3529.5 c 128,-1,43
 928 -3646 928 -3646 928 -3770 c 2,44,-1
 928 -5282 l 2,45,46
 928 -5496 928 -5496 1041.5 -5680 c 128,-1,47
 1155 -5864 1155 -5864 1348 -5970 c 1,48,49
 1354 -5976 1354 -5976 1354 -5984 c 2,50,-1
 1354 -6044 l 2,51,52
 1354 -6050 1354 -6050 1349 -6055 c 128,-1,53
 1344 -6060 1344 -6060 1337 -6060 c 2,54,-1
 1278 -6060 l 1,55,56
 1225 -6047 1225 -6047 1128 -5978 c 128,-1,57
 1031 -5909 1031 -5909 967 -5847 c 1,0,1
EndSplineSet
EndChar

StartChar: bracketlefttp
Encoding: 50 50 109
Width: 1364
Flags: W
LayerCount: 2
Fore
SplineSet
664 -3604 m 1,0,-1
 664 80 l 1,1,-1
 1354 80 l 1,2,-1
 1354 -70 l 1,3,-1
 813 -70 l 1,4,-1
 813 -3604 l 1,5,-1
 664 -3604 l 1,0,-1
EndSplineSet
EndChar

StartChar: parenrightex
Encoding: 67 67 110
Width: 1792
Flags: W
LayerCount: 2
Fore
SplineSet
958 -1231 m 2,0,-1
 958 2 l 2,1,2
 958 9 958 9 963 14.5 c 128,-1,3
 968 20 968 20 977 20 c 2,4,-1
 1178 20 l 2,5,6
 1184 20 1184 20 1189 14.5 c 128,-1,7
 1194 9 1194 9 1194 2 c 2,8,-1
 1194 -1231 l 2,9,10
 1194 -1236 1194 -1236 1188.5 -1242.5 c 128,-1,11
 1183 -1249 1183 -1249 1178 -1249 c 2,12,-1
 977 -1249 l 2,13,14
 958 -1249 958 -1249 958 -1231 c 2,0,-1
EndSplineSet
EndChar

StartChar: bracketrightbig
Encoding: 164 164 111
Width: 852
Flags: W
LayerCount: 2
Fore
SplineSet
45 -2374 m 1,0,-1
 45 -2292 l 1,1,-1
 356 -2292 l 1,2,-1
 356 0 l 1,3,-1
 45 0 l 1,4,-1
 45 82 l 1,5,-1
 438 82 l 1,6,-1
 438 -2374 l 1,7,-1
 45 -2374 l 1,0,-1
EndSplineSet
EndChar

StartChar: parenleftBig
Encoding: 179 179 112
Width: 1223
Flags: W
LayerCount: 2
Fore
SplineSet
1075 -3598 m 1,0,1
 884 -3432 884 -3432 748.5 -3221 c 128,-1,2
 613 -3010 613 -3010 529.5 -2770 c 128,-1,3
 446 -2530 446 -2530 407.5 -2277 c 128,-1,4
 369 -2024 369 -2024 369 -1761 c 0,5,6
 369 -1497 369 -1497 407.5 -1243.5 c 128,-1,7
 446 -990 446 -990 529.5 -750 c 128,-1,8
 613 -510 613 -510 748.5 -299 c 128,-1,9
 884 -88 884 -88 1075 78 c 1,10,11
 1075 82 1075 82 1085 82 c 2,12,-1
 1133 82 l 2,13,14
 1139 82 1139 82 1144 75.5 c 128,-1,15
 1149 69 1149 69 1149 63 c 0,16,17
 1149 55 1149 55 1145 51 c 0,18,19
 970 -124 970 -124 852 -333 c 128,-1,20
 734 -542 734 -542 663 -780.5 c 128,-1,21
 592 -1019 592 -1019 562 -1263.5 c 128,-1,22
 532 -1508 532 -1508 532 -1763 c 0,23,24
 532 -2017 532 -2017 562 -2262.5 c 128,-1,25
 592 -2508 592 -2508 663 -2744 c 128,-1,26
 734 -2980 734 -2980 853.5 -3190 c 128,-1,27
 973 -3400 973 -3400 1145 -3572 c 0,28,29
 1149 -3576 1149 -3576 1149 -3584 c 0,30,31
 1149 -3589 1149 -3589 1143.5 -3595.5 c 128,-1,32
 1138 -3602 1138 -3602 1133 -3602 c 2,33,-1
 1085 -3602 l 2,34,35
 1075 -3602 1075 -3602 1075 -3598 c 1,0,1
EndSplineSet
EndChar

StartChar: angbracketrightbigg
Encoding: 192 192 113
Width: 1536
Flags: W
LayerCount: 2
Fore
SplineSet
197 -4774 m 1,0,1
 197 -4762 197 -4762 201 -4755 c 1,2,-1
 1157 -2376 l 1,3,-1
 203 2 l 1,4,5
 197 11 197 11 197 25 c 1,6,7
 203 76 203 76 256 82 c 1,8,9
 291 79 291 79 309 47 c 1,10,-1
 1274 -2353 l 2,11,12
 1278 -2365 1278 -2365 1278 -2376 c 0,13,14
 1278 -2386 1278 -2386 1276 -2392 c 2,15,-1
 309 -4796 l 1,16,17
 291 -4828 291 -4828 256 -4831 c 1,18,19
 203 -4825 203 -4825 197 -4774 c 1,0,1
EndSplineSet
EndChar

StartChar: angbracketleftBigg
Encoding: 42 42 114
Width: 1649
Flags: W
LayerCount: 2
Fore
SplineSet
1303 -6017 m 1,0,-1
 289 -3013 l 1,1,2
 285 -2995 285 -2995 285 -2990 c 0,3,4
 285 -2980 285 -2980 289 -2968 c 2,5,-1
 1303 39 l 1,6,7
 1321 82 1321 82 1366 82 c 0,8,9
 1392 82 1392 82 1412 62 c 128,-1,10
 1432 42 1432 42 1432 16 c 0,11,12
 1432 5 1432 5 1427 -8 c 2,13,-1
 422 -2990 l 1,14,-1
 1427 -5972 l 1,15,16
 1432 -5982 1432 -5982 1432 -5994 c 0,17,18
 1432 -6020 1432 -6020 1412 -6040 c 128,-1,19
 1392 -6060 1392 -6060 1366 -6060 c 0,20,21
 1324 -6060 1324 -6060 1303 -6017 c 1,0,-1
EndSplineSet
EndChar

StartChar: bracketleftbt
Encoding: 52 52 116
Width: 1364
Flags: W
LayerCount: 2
Fore
SplineSet
664 -3602 m 1,0,-1
 664 82 l 1,1,-1
 813 82 l 1,2,-1
 813 -3453 l 1,3,-1
 1354 -3453 l 1,4,-1
 1354 -3602 l 1,5,-1
 664 -3602 l 1,0,-1
EndSplineSet
EndChar

StartChar: bracketrighttp
Encoding: 51 51 117
Width: 1364
Flags: W
LayerCount: 2
Fore
SplineSet
551 -3604 m 1,0,-1
 551 -70 l 1,1,-1
 10 -70 l 1,2,-1
 10 80 l 1,3,-1
 700 80 l 1,4,-1
 700 -3604 l 1,5,-1
 551 -3604 l 1,0,-1
EndSplineSet
EndChar

StartChar: floorrightbig
Encoding: 166 166 118
Width: 967
Flags: W
LayerCount: 2
Fore
SplineSet
45 -2374 m 1,0,-1
 45 -2292 l 1,1,-1
 469 -2292 l 1,2,-1
 469 82 l 1,3,-1
 551 82 l 1,4,-1
 551 -2374 l 1,5,-1
 45 -2374 l 1,0,-1
EndSplineSet
EndChar

StartChar: parenleftbigg
Encoding: 181 181 119
Width: 1507
Flags: W
LayerCount: 2
Fore
SplineSet
1356 -4827 m 1,0,1
 1104 -4604 1104 -4604 924 -4319 c 128,-1,2
 744 -4034 744 -4034 635 -3717 c 128,-1,3
 526 -3400 526 -3400 476 -3061.5 c 128,-1,4
 426 -2723 426 -2723 426 -2376 c 0,5,6
 426 -2027 426 -2027 476 -1687.5 c 128,-1,7
 526 -1348 526 -1348 634.5 -1032 c 128,-1,8
 743 -716 743 -716 923.5 -430.5 c 128,-1,9
 1104 -145 1104 -145 1356 78 c 1,10,11
 1356 82 1356 82 1366 82 c 2,12,-1
 1419 82 l 2,13,14
 1425 82 1425 82 1430.5 76 c 128,-1,15
 1436 70 1436 70 1436 63 c 0,16,17
 1436 55 1436 55 1432 51 c 0,18,19
 1198 -180 1198 -180 1036.5 -463 c 128,-1,20
 875 -746 875 -746 780 -1059 c 128,-1,21
 685 -1372 685 -1372 644.5 -1702 c 128,-1,22
 604 -2032 604 -2032 604 -2376 c 0,23,24
 604 -2719 604 -2719 644 -3044.5 c 128,-1,25
 684 -3370 684 -3370 780 -3687 c 128,-1,26
 876 -4004 876 -4004 1038 -4287 c 128,-1,27
 1200 -4570 1200 -4570 1432 -4801 c 0,28,29
 1436 -4805 1436 -4805 1436 -4813 c 0,30,31
 1436 -4819 1436 -4819 1430 -4825 c 128,-1,32
 1424 -4831 1424 -4831 1419 -4831 c 2,33,-1
 1366 -4831 l 2,34,35
 1356 -4831 1356 -4831 1356 -4827 c 1,0,1
EndSplineSet
EndChar

StartChar: backslashbigg
Encoding: 194 194 120
Width: 2138
Flags: W
LayerCount: 2
Fore
SplineSet
1915 -4796 m 1,0,-1
 119 6 l 2,1,2
 115 18 115 18 115 27 c 0,3,4
 115 50 115 50 131 66 c 128,-1,5
 147 82 147 82 170 82 c 0,6,7
 204 82 204 82 221 47 c 1,8,-1
 2017 -4755 l 1,9,10
 2021 -4769 2021 -4769 2021 -4776 c 0,11,12
 2021 -4799 2021 -4799 2005 -4815 c 128,-1,13
 1989 -4831 1989 -4831 1966 -4831 c 0,14,15
 1932 -4831 1932 -4831 1915 -4796 c 1,0,-1
EndSplineSet
EndChar

StartChar: slashBigg
Encoding: 44 44 121
Width: 2615
Flags: W
LayerCount: 2
Fore
SplineSet
115 -5999 m 0,0,1
 115 -5986 115 -5986 121 -5974 c 1,2,-1
 2382 45 l 1,3,4
 2400 82 2400 82 2439 82 c 0,5,6
 2465 82 2465 82 2483 64 c 128,-1,7
 2501 46 2501 46 2501 20 c 0,8,9
 2501 14 2501 14 2497 -6 c 1,10,-1
 236 -6023 l 1,11,12
 213 -6060 213 -6060 178 -6060 c 0,13,14
 153 -6060 153 -6060 134 -6041 c 128,-1,15
 115 -6022 115 -6022 115 -5999 c 0,0,1
EndSplineSet
EndChar

StartChar: braceleftmid
Encoding: 60 60 122
Width: 1819
Flags: W
LayerCount: 2
Fore
SplineSet
786 -3688 m 2,0,-1
 786 -2798 l 2,1,2
 786 -2668 786 -2668 759 -2535 c 128,-1,3
 732 -2402 732 -2402 679 -2284 c 128,-1,4
 626 -2166 626 -2166 544.5 -2064.5 c 128,-1,5
 463 -1963 463 -1963 356 -1888 c 1,6,7
 348 -1884 348 -1884 348 -1876 c 2,8,-1
 348 -1812 l 2,9,10
 348 -1802 348 -1802 356 -1798 c 1,11,12
 463 -1722 463 -1722 545.5 -1619 c 128,-1,13
 628 -1516 628 -1516 680 -1400 c 128,-1,14
 732 -1284 732 -1284 759 -1151.5 c 128,-1,15
 786 -1019 786 -1019 786 -891 c 2,16,-1
 786 2 l 2,17,18
 786 9 786 9 791 14.5 c 128,-1,19
 796 20 796 20 805 20 c 2,20,-1
 1016 20 l 2,21,22
 1022 20 1022 20 1027 14.5 c 128,-1,23
 1032 9 1032 9 1032 2 c 2,24,-1
 1032 -895 l 2,25,26
 1032 -1040 1032 -1040 991 -1179.5 c 128,-1,27
 950 -1319 950 -1319 875.5 -1443 c 128,-1,28
 801 -1567 801 -1567 696.5 -1668.5 c 128,-1,29
 592 -1770 592 -1770 467 -1843 c 1,30,31
 588 -1912 588 -1912 694.5 -2016.5 c 128,-1,32
 801 -2121 801 -2121 875.5 -2244.5 c 128,-1,33
 950 -2368 950 -2368 991 -2507 c 128,-1,34
 1032 -2646 1032 -2646 1032 -2793 c 2,35,-1
 1032 -3688 l 2,36,37
 1032 -3694 1032 -3694 1026.5 -3700.5 c 128,-1,38
 1021 -3707 1021 -3707 1016 -3707 c 2,39,-1
 805 -3707 l 2,40,41
 786 -3707 786 -3707 786 -3688 c 2,0,-1
EndSplineSet
EndChar

StartChar: bracketrightbt
Encoding: 53 53 123
Width: 1364
Flags: W
LayerCount: 2
Fore
SplineSet
10 -3602 m 1,0,-1
 10 -3453 l 1,1,-1
 551 -3453 l 1,2,-1
 551 82 l 1,3,-1
 700 82 l 1,4,-1
 700 -3602 l 1,5,-1
 10 -3602 l 1,0,-1
EndSplineSet
EndChar

StartChar: ceilingrightbig
Encoding: 168 168 124
Width: 967
Flags: W
LayerCount: 2
Fore
SplineSet
469 -2374 m 1,0,-1
 469 0 l 1,1,-1
 45 0 l 1,2,-1
 45 82 l 1,3,-1
 551 82 l 1,4,-1
 551 -2374 l 1,5,-1
 469 -2374 l 1,0,-1
EndSplineSet
EndChar

StartChar: bracketleftbigg
Encoding: 183 183 125
Width: 1079
Flags: W
LayerCount: 2
Fore
SplineSet
510 -4831 m 1,0,-1
 510 82 l 1,1,-1
 1053 82 l 1,2,-1
 1053 -35 l 1,3,-1
 627 -35 l 1,4,-1
 627 -4714 l 1,5,-1
 1053 -4714 l 1,6,-1
 1053 -4831 l 1,7,-1
 510 -4831 l 1,0,-1
EndSplineSet
EndChar

StartChar: parenrightBigg
Encoding: 33 33 126
Width: 1620
Flags: W
LayerCount: 2
Fore
SplineSet
86 -6060 m 2,0,1
 68 -6060 68 -6060 68 -6042 c 0,2,3
 68 -6033 68 -6033 72 -6029 c 0,4,5
 326 -5729 326 -5729 498 -5366 c 128,-1,6
 670 -5003 670 -5003 763 -4612.5 c 128,-1,7
 856 -4222 856 -4222 893 -3825 c 128,-1,8
 930 -3428 930 -3428 930 -2990 c 0,9,10
 930 -2550 930 -2550 893 -2152 c 128,-1,11
 856 -1754 856 -1754 763 -1365 c 128,-1,12
 670 -976 670 -976 498 -611.5 c 128,-1,13
 326 -247 326 -247 72 51 c 0,14,15
 68 55 68 55 68 63 c 0,16,17
 68 82 68 82 86 82 c 2,18,-1
 145 82 l 2,19,20
 146 82 146 82 158 76 c 1,21,22
 439 -217 439 -217 632 -578.5 c 128,-1,23
 825 -940 825 -940 935 -1337 c 128,-1,24
 1045 -1734 1045 -1734 1091 -2141 c 128,-1,25
 1137 -2548 1137 -2548 1137 -2990 c 0,26,27
 1137 -3430 1137 -3430 1091 -3836.5 c 128,-1,28
 1045 -4243 1045 -4243 934.5 -4640.5 c 128,-1,29
 824 -5038 824 -5038 632 -5398.5 c 128,-1,30
 440 -5759 440 -5759 158 -6054 c 1,31,32
 146 -6060 146 -6060 145 -6060 c 2,33,-1
 86 -6060 l 2,0,1
EndSplineSet
EndChar

StartChar: slashBig
Encoding: 46 46 127
Width: 1661
Flags: W
LayerCount: 2
Fore
SplineSet
115 -3559 m 1,0,-1
 115 -3547 l 1,1,2
 116 -3545 116 -3545 116.5 -3543 c 128,-1,3
 117 -3541 117 -3541 117 -3539 c 2,4,-1
 1448 49 l 1,5,6
 1456 75 1456 75 1489 82 c 1,7,-1
 1501 82 l 1,8,9
 1534 76 1534 76 1544 39 c 1,10,-1
 1544 27 l 2,11,12
 1544 25 1544 25 1543.5 22.5 c 128,-1,13
 1543 20 1543 20 1542 18 c 2,14,-1
 211 -3570 l 1,15,16
 203 -3595 203 -3595 170 -3602 c 1,17,-1
 158 -3602 l 1,18,19
 125 -3596 125 -3596 115 -3559 c 1,0,-1
EndSplineSet
EndChar

StartChar: braceex
Encoding: 62 62 128
Width: 1819
Flags: W
LayerCount: 2
Fore
SplineSet
786 -616 m 2,0,-1
 786 2 l 2,1,2
 786 9 786 9 791 14.5 c 128,-1,3
 796 20 796 20 805 20 c 2,4,-1
 1016 20 l 2,5,6
 1022 20 1022 20 1027 14.5 c 128,-1,7
 1032 9 1032 9 1032 2 c 2,8,-1
 1032 -616 l 2,9,10
 1032 -622 1032 -622 1026.5 -628.5 c 128,-1,11
 1021 -635 1021 -635 1016 -635 c 2,12,-1
 805 -635 l 2,13,14
 786 -635 786 -635 786 -616 c 2,0,-1
EndSplineSet
EndChar

StartChar: bracerightmid
Encoding: 61 61 129
Width: 1819
Flags: W
LayerCount: 2
Fore
SplineSet
786 -3688 m 2,0,-1
 786 -2793 l 2,1,2
 786 -2651 786 -2651 826 -2512 c 128,-1,3
 866 -2373 866 -2373 942.5 -2246.5 c 128,-1,4
 1019 -2120 1019 -2120 1125 -2016 c 128,-1,5
 1231 -1912 1231 -1912 1352 -1843 c 1,6,7
 1227 -1770 1227 -1770 1123.5 -1669 c 128,-1,8
 1020 -1568 1020 -1568 943 -1441 c 128,-1,9
 866 -1314 866 -1314 826 -1174 c 128,-1,10
 786 -1034 786 -1034 786 -895 c 2,11,-1
 786 2 l 2,12,13
 786 9 786 9 791 14.5 c 128,-1,14
 796 20 796 20 805 20 c 2,15,-1
 1016 20 l 2,16,17
 1022 20 1022 20 1027 14.5 c 128,-1,18
 1032 9 1032 9 1032 2 c 2,19,-1
 1032 -891 l 2,20,21
 1032 -1071 1032 -1071 1079.5 -1239.5 c 128,-1,22
 1127 -1408 1127 -1408 1224 -1553 c 128,-1,23
 1321 -1698 1321 -1698 1464 -1798 c 1,24,25
 1470 -1804 1470 -1804 1470 -1812 c 2,26,-1
 1470 -1876 l 2,27,28
 1470 -1882 1470 -1882 1464 -1888 c 1,29,30
 1321 -1988 1321 -1988 1224 -2133.5 c 128,-1,31
 1127 -2279 1127 -2279 1079.5 -2448 c 128,-1,32
 1032 -2617 1032 -2617 1032 -2798 c 2,33,-1
 1032 -3688 l 2,34,35
 1032 -3694 1032 -3694 1026.5 -3700.5 c 128,-1,36
 1021 -3707 1021 -3707 1016 -3707 c 2,37,-1
 805 -3707 l 2,38,39
 786 -3707 786 -3707 786 -3688 c 2,0,-1
EndSplineSet
EndChar

StartChar: bracerightbig
Encoding: 170 170 130
Width: 1194
Flags: W
LayerCount: 2
Fore
SplineSet
227 -2357 m 2,0,-1
 227 -2333 l 2,1,2
 227 -2319 227 -2319 242 -2316 c 1,3,4
 522 -2225 522 -2225 522 -2052 c 2,5,-1
 522 -1454 l 2,6,7
 522 -1251 522 -1251 854 -1147 c 1,8,9
 710 -1098 710 -1098 616 -1027 c 128,-1,10
 522 -956 522 -956 522 -838 c 2,11,-1
 522 -240 l 2,12,13
 522 -66 522 -66 242 25 c 1,14,15
 227 28 227 28 227 41 c 2,16,-1
 227 66 l 2,17,18
 227 82 227 82 246 82 c 2,19,-1
 270 82 l 1,20,21
 435 42 435 42 553.5 -31 c 128,-1,22
 672 -104 672 -104 672 -236 c 2,23,-1
 672 -834 l 2,24,25
 672 -936 672 -936 753.5 -1005.5 c 128,-1,26
 835 -1075 835 -1075 952 -1118 c 0,27,28
 965 -1122 965 -1122 965 -1135 c 2,29,-1
 965 -1159 l 2,30,31
 965 -1165 965 -1165 952 -1176 c 1,32,33
 886 -1198 886 -1198 821 -1236.5 c 128,-1,34
 756 -1275 756 -1275 714 -1331.5 c 128,-1,35
 672 -1388 672 -1388 672 -1458 c 2,36,-1
 672 -2056 l 2,37,38
 672 -2148 672 -2148 608.5 -2212.5 c 128,-1,39
 545 -2277 545 -2277 460 -2312.5 c 128,-1,40
 375 -2348 375 -2348 270 -2374 c 1,41,-1
 246 -2374 l 2,42,43
 238 -2374 238 -2374 232.5 -2368.5 c 128,-1,44
 227 -2363 227 -2363 227 -2357 c 2,0,-1
EndSplineSet
EndChar

StartChar: floorleftbigg
Encoding: 185 185 131
Width: 1194
Flags: W
LayerCount: 2
Fore
SplineSet
510 -4831 m 1,0,-1
 510 82 l 1,1,-1
 627 82 l 1,2,-1
 627 -4714 l 1,3,-1
 1165 -4714 l 1,4,-1
 1165 -4831 l 1,5,-1
 510 -4831 l 1,0,-1
EndSplineSet
EndChar

StartChar: bracketrightBigg
Encoding: 35 35 132
Width: 1194
Flags: W
LayerCount: 2
Fore
SplineSet
18 -6060 m 1,0,-1
 18 -5927 l 1,1,-1
 500 -5927 l 1,2,-1
 500 -51 l 1,3,-1
 18 -51 l 1,4,-1
 18 82 l 1,5,-1
 633 82 l 1,6,-1
 633 -6060 l 1,7,-1
 18 -6060 l 1,0,-1
EndSplineSet
EndChar
